M48
; DRILL file {KiCad 7.0.5} date Mon Oct  9 12:46:40 2023
; FORMAT={-:-/ absolute / inch / decimal}
; #@! TF.CreationDate,2023-10-09T12:46:40-04:00
; #@! TF.GenerationSoftware,Kicad,Pcbnew,7.0.5
; #@! TF.FileFunction,Plated,1,2,PTH
FMAT,2
INCH
; #@! TA.AperFunction,Plated,PTH,ViaDrill
T1C0.0157
; #@! TA.AperFunction,Plated,PTH,ComponentDrill
T2C0.0295
; #@! TA.AperFunction,Plated,PTH,ComponentDrill
T3C0.0315
; #@! TA.AperFunction,Plated,PTH,ComponentDrill
T4C0.0335
; #@! TA.AperFunction,Plated,PTH,ComponentDrill
T5C0.0394
; #@! TA.AperFunction,Plated,PTH,ComponentDrill
T6C0.0433
; #@! TA.AperFunction,Plated,PTH,ComponentDrill
T7C0.0472
%
G90
G05
T1
X3.9764Y-3.0315
X3.9764Y-4.9213
X4.1642Y-3.3689
X4.1732Y-3.0315
X4.2913Y-2.7953
X4.2913Y-5.0
X4.3047Y-3.3689
X4.3504Y-2.4016
X4.3504Y-2.5236
X4.4606Y-3.315
X4.4606Y-3.4173
X4.5197Y-2.9961
X4.5197Y-3.3386
X4.5197Y-3.626
X4.5276Y-2.6063
X4.5669Y-3.0709
X4.6063Y-3.0315
X4.685Y-3.5433
X4.6969Y-2.6063
X4.7992Y-2.6299
X4.7992Y-2.7165
X4.7992Y-2.9921
X4.7992Y-3.1024
X4.8425Y-3.1102
X4.8701Y-3.3268
X4.8701Y-3.4961
X4.8819Y-2.3622
X4.9213Y-2.7165
X4.9213Y-3.0315
X4.9213Y-3.2677
X4.9213Y-4.6063
X4.9213Y-4.7638
X4.9385Y-2.238
X4.9606Y-2.2835
X4.9606Y-3.1496
X4.9909Y-4.9059
X5.0787Y-3.1102
X5.1575Y-2.6772
X5.1575Y-2.874
X5.1575Y-2.9921
X5.1605Y-4.185
X5.2244Y-4.185
X5.2677Y-3.3976
X5.2835Y-2.5709
X5.2996Y-3.4291
X5.3268Y-4.7205
X5.3299Y-2.7087
X5.3307Y-2.8504
X5.3425Y-2.5039
X5.3583Y-2.0512
X5.3583Y-3.4291
X5.3622Y-2.748
X5.3664Y-3.2445
X5.3762Y-2.1811
X5.3849Y-2.6378
X5.3849Y-2.7802
X5.4049Y-3.437
X5.4055Y-3.2402
X5.408Y-3.0368
X5.4275Y-2.5219
X5.4332Y-2.2677
X5.4606Y-3.1575
X5.526Y-4.541
X5.5315Y-2.8819
X5.5384Y-2.96
X5.5669Y-2.7323
X5.5709Y-3.2677
T2
X3.7067Y-2.4173
X3.7067Y-2.4673
X3.7067Y-2.5173
X3.7457Y-3.9815
X3.7457Y-4.0315
X3.7457Y-4.0815
X3.7602Y-2.8094
X3.7602Y-2.8594
X3.7602Y-2.9094
X3.7642Y-3.2028
X3.7642Y-3.2528
X3.7642Y-3.3028
X3.7642Y-3.5886
X3.7642Y-3.6386
X3.7642Y-3.6886
X5.0917Y-4.0409
X5.1417Y-4.0409
X5.1917Y-4.0409
X5.2295Y-4.2575
X5.2591Y-2.7457
X5.2591Y-2.7957
X5.2591Y-2.8457
X5.2795Y-4.2575
X5.3295Y-4.2575
X5.3835Y-4.0445
X5.4335Y-4.0445
X5.4827Y-2.965
X5.4827Y-3.015
X5.4827Y-3.065
X5.4831Y-2.7457
X5.4831Y-2.7957
X5.4831Y-2.8457
X5.4835Y-4.0445
T3
X3.8488Y-2.5413
X3.9516Y-5.1984
X4.1508Y-5.2008
X5.1972Y-3.2531
X5.1972Y-3.3531
X5.1972Y-3.4531
X5.1972Y-3.5531
X5.1972Y-3.6531
X5.1972Y-3.7531
X5.1972Y-3.8531
X5.2047Y-2.0043
X5.2047Y-2.1043
X5.2047Y-2.2043
X5.2047Y-2.3043
X5.2047Y-2.4043
X5.2047Y-2.5043
X5.2047Y-2.6043
X5.2524Y-2.9803
X5.2524Y-3.0787
X5.2846Y-4.4669
X5.2846Y-4.5654
X5.4972Y-3.2531
X5.4972Y-3.3531
X5.4972Y-3.4531
X5.4972Y-3.5531
X5.4972Y-3.6531
X5.4972Y-3.7531
X5.4972Y-3.8531
X5.5047Y-2.0043
X5.5047Y-2.1043
X5.5047Y-2.2043
X5.5047Y-2.3043
X5.5047Y-2.4043
X5.5047Y-2.5043
X5.5047Y-2.6043
T4
X5.0654Y-4.8047
X5.0654Y-5.1984
T5
X5.6374Y-2.2612
X5.6374Y-2.3612
X5.6374Y-2.4612
X5.6374Y-2.5612
X5.6374Y-2.6612
X5.6374Y-2.7612
X5.6374Y-2.8612
X5.6374Y-2.9612
X5.6374Y-3.0612
X5.6374Y-3.1612
X5.6374Y-3.2612
X5.6374Y-3.3612
X5.6374Y-3.4612
X5.6374Y-3.5612
X5.6374Y-3.6612
X5.6374Y-3.7612
X5.6374Y-3.8612
X5.6374Y-3.9612
X5.6374Y-4.0612
X5.6374Y-4.1612
X5.7374Y-2.2612
X5.7374Y-2.3612
X5.7374Y-2.4612
X5.7374Y-2.5612
X5.7374Y-2.6612
X5.7374Y-2.7612
X5.7374Y-2.8612
X5.7374Y-2.9612
X5.7374Y-3.0612
X5.7374Y-3.1612
X5.7374Y-3.2612
X5.7374Y-3.3612
X5.7374Y-3.4612
X5.7374Y-3.5612
X5.7374Y-3.6612
X5.7374Y-3.7612
X5.7374Y-3.8612
X5.7374Y-3.9612
X5.7374Y-4.0612
X5.7374Y-4.1612
T6
X5.4728Y-4.2413
X5.4728Y-4.6413
T7
X3.6799Y-2.6587
X3.6803Y-2.2728
X3.698Y-3.8327
X3.6988Y-3.4453
X3.7008Y-3.0555
X3.7067Y-4.5445
X3.7067Y-5.0445
X3.7799Y-2.6587
X3.7803Y-2.2728
X3.798Y-3.8327
X3.7988Y-3.4453
X3.8008Y-3.0555
X3.9665Y-2.5083
X3.9673Y-2.0126
X3.9673Y-2.178
X3.9673Y-2.3457
X4.4224Y-5.1909
X4.4665Y-2.5083
X4.4673Y-2.0126
X4.4673Y-2.178
X4.4673Y-2.3457
X4.5839Y-2.0106
X4.5839Y-2.1776
X4.5862Y-2.3441
X4.5862Y-2.5098
X4.9224Y-5.1909
X5.052Y-2.7524
X5.052Y-3.2524
X5.0539Y-3.3685
X5.0539Y-3.8685
X5.0654Y-4.1878
X5.0654Y-4.6878
X5.0839Y-2.0106
X5.0839Y-2.1776
X5.0862Y-2.3441
X5.0862Y-2.5098
X5.2146Y-5.1807
X5.2276Y-4.7646
X5.2276Y-5.0008
X5.4835Y-4.7646
X5.4835Y-5.0008
X5.6835Y-4.5319
X5.6835Y-5.0319
X5.7146Y-5.1807
T0
M30
