G04 #@! TF.GenerationSoftware,KiCad,Pcbnew,7.0.5*
G04 #@! TF.CreationDate,2023-10-09T12:46:36-04:00*
G04 #@! TF.ProjectId,alex_proposal_box,616c6578-5f70-4726-9f70-6f73616c5f62,rev?*
G04 #@! TF.SameCoordinates,Original*
G04 #@! TF.FileFunction,Legend,Top*
G04 #@! TF.FilePolarity,Positive*
%FSLAX46Y46*%
G04 Gerber Fmt 4.6, Leading zero omitted, Abs format (unit mm)*
G04 Created by KiCad (PCBNEW 7.0.5) date 2023-10-09 12:46:36*
%MOMM*%
%LPD*%
G01*
G04 APERTURE LIST*
%ADD10C,0.150000*%
%ADD11C,0.100000*%
%ADD12C,0.120000*%
G04 APERTURE END LIST*
D10*
X98840000Y-66060000D02*
X126300000Y-66060000D01*
X126300000Y-130020000D01*
X98840000Y-130020000D01*
X98840000Y-66060000D01*
X104269819Y-114463220D02*
X103269819Y-114463220D01*
X104269819Y-114034649D02*
X103746009Y-114034649D01*
X103746009Y-114034649D02*
X103650771Y-114082268D01*
X103650771Y-114082268D02*
X103603152Y-114177506D01*
X103603152Y-114177506D02*
X103603152Y-114320363D01*
X103603152Y-114320363D02*
X103650771Y-114415601D01*
X103650771Y-114415601D02*
X103698390Y-114463220D01*
X103603152Y-113701315D02*
X103603152Y-113320363D01*
X103269819Y-113558458D02*
X104126961Y-113558458D01*
X104126961Y-113558458D02*
X104222200Y-113510839D01*
X104222200Y-113510839D02*
X104269819Y-113415601D01*
X104269819Y-113415601D02*
X104269819Y-113320363D01*
X103603152Y-113129886D02*
X103603152Y-112748934D01*
X103269819Y-112987029D02*
X104126961Y-112987029D01*
X104126961Y-112987029D02*
X104222200Y-112939410D01*
X104222200Y-112939410D02*
X104269819Y-112844172D01*
X104269819Y-112844172D02*
X104269819Y-112748934D01*
X103603152Y-112415600D02*
X104603152Y-112415600D01*
X103650771Y-112415600D02*
X103603152Y-112320362D01*
X103603152Y-112320362D02*
X103603152Y-112129886D01*
X103603152Y-112129886D02*
X103650771Y-112034648D01*
X103650771Y-112034648D02*
X103698390Y-111987029D01*
X103698390Y-111987029D02*
X103793628Y-111939410D01*
X103793628Y-111939410D02*
X104079342Y-111939410D01*
X104079342Y-111939410D02*
X104174580Y-111987029D01*
X104174580Y-111987029D02*
X104222200Y-112034648D01*
X104222200Y-112034648D02*
X104269819Y-112129886D01*
X104269819Y-112129886D02*
X104269819Y-112320362D01*
X104269819Y-112320362D02*
X104222200Y-112415600D01*
X104222200Y-111558457D02*
X104269819Y-111463219D01*
X104269819Y-111463219D02*
X104269819Y-111272743D01*
X104269819Y-111272743D02*
X104222200Y-111177505D01*
X104222200Y-111177505D02*
X104126961Y-111129886D01*
X104126961Y-111129886D02*
X104079342Y-111129886D01*
X104079342Y-111129886D02*
X103984104Y-111177505D01*
X103984104Y-111177505D02*
X103936485Y-111272743D01*
X103936485Y-111272743D02*
X103936485Y-111415600D01*
X103936485Y-111415600D02*
X103888866Y-111510838D01*
X103888866Y-111510838D02*
X103793628Y-111558457D01*
X103793628Y-111558457D02*
X103746009Y-111558457D01*
X103746009Y-111558457D02*
X103650771Y-111510838D01*
X103650771Y-111510838D02*
X103603152Y-111415600D01*
X103603152Y-111415600D02*
X103603152Y-111272743D01*
X103603152Y-111272743D02*
X103650771Y-111177505D01*
X104174580Y-110701314D02*
X104222200Y-110653695D01*
X104222200Y-110653695D02*
X104269819Y-110701314D01*
X104269819Y-110701314D02*
X104222200Y-110748933D01*
X104222200Y-110748933D02*
X104174580Y-110701314D01*
X104174580Y-110701314D02*
X104269819Y-110701314D01*
X103650771Y-110701314D02*
X103698390Y-110653695D01*
X103698390Y-110653695D02*
X103746009Y-110701314D01*
X103746009Y-110701314D02*
X103698390Y-110748933D01*
X103698390Y-110748933D02*
X103650771Y-110701314D01*
X103650771Y-110701314D02*
X103746009Y-110701314D01*
X103222200Y-109510839D02*
X104507914Y-110367981D01*
X103222200Y-108463220D02*
X104507914Y-109320362D01*
X103603152Y-107701315D02*
X104412676Y-107701315D01*
X104412676Y-107701315D02*
X104507914Y-107748934D01*
X104507914Y-107748934D02*
X104555533Y-107796553D01*
X104555533Y-107796553D02*
X104603152Y-107891791D01*
X104603152Y-107891791D02*
X104603152Y-108034648D01*
X104603152Y-108034648D02*
X104555533Y-108129886D01*
X104222200Y-107701315D02*
X104269819Y-107796553D01*
X104269819Y-107796553D02*
X104269819Y-107987029D01*
X104269819Y-107987029D02*
X104222200Y-108082267D01*
X104222200Y-108082267D02*
X104174580Y-108129886D01*
X104174580Y-108129886D02*
X104079342Y-108177505D01*
X104079342Y-108177505D02*
X103793628Y-108177505D01*
X103793628Y-108177505D02*
X103698390Y-108129886D01*
X103698390Y-108129886D02*
X103650771Y-108082267D01*
X103650771Y-108082267D02*
X103603152Y-107987029D01*
X103603152Y-107987029D02*
X103603152Y-107796553D01*
X103603152Y-107796553D02*
X103650771Y-107701315D01*
X104269819Y-107225124D02*
X103603152Y-107225124D01*
X103269819Y-107225124D02*
X103317438Y-107272743D01*
X103317438Y-107272743D02*
X103365057Y-107225124D01*
X103365057Y-107225124D02*
X103317438Y-107177505D01*
X103317438Y-107177505D02*
X103269819Y-107225124D01*
X103269819Y-107225124D02*
X103365057Y-107225124D01*
X103603152Y-106891791D02*
X103603152Y-106510839D01*
X103269819Y-106748934D02*
X104126961Y-106748934D01*
X104126961Y-106748934D02*
X104222200Y-106701315D01*
X104222200Y-106701315D02*
X104269819Y-106606077D01*
X104269819Y-106606077D02*
X104269819Y-106510839D01*
X104269819Y-106177505D02*
X103269819Y-106177505D01*
X104269819Y-105748934D02*
X103746009Y-105748934D01*
X103746009Y-105748934D02*
X103650771Y-105796553D01*
X103650771Y-105796553D02*
X103603152Y-105891791D01*
X103603152Y-105891791D02*
X103603152Y-106034648D01*
X103603152Y-106034648D02*
X103650771Y-106129886D01*
X103650771Y-106129886D02*
X103698390Y-106177505D01*
X103603152Y-104844172D02*
X104269819Y-104844172D01*
X103603152Y-105272743D02*
X104126961Y-105272743D01*
X104126961Y-105272743D02*
X104222200Y-105225124D01*
X104222200Y-105225124D02*
X104269819Y-105129886D01*
X104269819Y-105129886D02*
X104269819Y-104987029D01*
X104269819Y-104987029D02*
X104222200Y-104891791D01*
X104222200Y-104891791D02*
X104174580Y-104844172D01*
X104269819Y-104367981D02*
X103269819Y-104367981D01*
X103650771Y-104367981D02*
X103603152Y-104272743D01*
X103603152Y-104272743D02*
X103603152Y-104082267D01*
X103603152Y-104082267D02*
X103650771Y-103987029D01*
X103650771Y-103987029D02*
X103698390Y-103939410D01*
X103698390Y-103939410D02*
X103793628Y-103891791D01*
X103793628Y-103891791D02*
X104079342Y-103891791D01*
X104079342Y-103891791D02*
X104174580Y-103939410D01*
X104174580Y-103939410D02*
X104222200Y-103987029D01*
X104222200Y-103987029D02*
X104269819Y-104082267D01*
X104269819Y-104082267D02*
X104269819Y-104272743D01*
X104269819Y-104272743D02*
X104222200Y-104367981D01*
X104174580Y-103463219D02*
X104222200Y-103415600D01*
X104222200Y-103415600D02*
X104269819Y-103463219D01*
X104269819Y-103463219D02*
X104222200Y-103510838D01*
X104222200Y-103510838D02*
X104174580Y-103463219D01*
X104174580Y-103463219D02*
X104269819Y-103463219D01*
X104222200Y-102558458D02*
X104269819Y-102653696D01*
X104269819Y-102653696D02*
X104269819Y-102844172D01*
X104269819Y-102844172D02*
X104222200Y-102939410D01*
X104222200Y-102939410D02*
X104174580Y-102987029D01*
X104174580Y-102987029D02*
X104079342Y-103034648D01*
X104079342Y-103034648D02*
X103793628Y-103034648D01*
X103793628Y-103034648D02*
X103698390Y-102987029D01*
X103698390Y-102987029D02*
X103650771Y-102939410D01*
X103650771Y-102939410D02*
X103603152Y-102844172D01*
X103603152Y-102844172D02*
X103603152Y-102653696D01*
X103603152Y-102653696D02*
X103650771Y-102558458D01*
X104269819Y-101987029D02*
X104222200Y-102082267D01*
X104222200Y-102082267D02*
X104174580Y-102129886D01*
X104174580Y-102129886D02*
X104079342Y-102177505D01*
X104079342Y-102177505D02*
X103793628Y-102177505D01*
X103793628Y-102177505D02*
X103698390Y-102129886D01*
X103698390Y-102129886D02*
X103650771Y-102082267D01*
X103650771Y-102082267D02*
X103603152Y-101987029D01*
X103603152Y-101987029D02*
X103603152Y-101844172D01*
X103603152Y-101844172D02*
X103650771Y-101748934D01*
X103650771Y-101748934D02*
X103698390Y-101701315D01*
X103698390Y-101701315D02*
X103793628Y-101653696D01*
X103793628Y-101653696D02*
X104079342Y-101653696D01*
X104079342Y-101653696D02*
X104174580Y-101701315D01*
X104174580Y-101701315D02*
X104222200Y-101748934D01*
X104222200Y-101748934D02*
X104269819Y-101844172D01*
X104269819Y-101844172D02*
X104269819Y-101987029D01*
X104269819Y-101225124D02*
X103603152Y-101225124D01*
X103698390Y-101225124D02*
X103650771Y-101177505D01*
X103650771Y-101177505D02*
X103603152Y-101082267D01*
X103603152Y-101082267D02*
X103603152Y-100939410D01*
X103603152Y-100939410D02*
X103650771Y-100844172D01*
X103650771Y-100844172D02*
X103746009Y-100796553D01*
X103746009Y-100796553D02*
X104269819Y-100796553D01*
X103746009Y-100796553D02*
X103650771Y-100748934D01*
X103650771Y-100748934D02*
X103603152Y-100653696D01*
X103603152Y-100653696D02*
X103603152Y-100510839D01*
X103603152Y-100510839D02*
X103650771Y-100415600D01*
X103650771Y-100415600D02*
X103746009Y-100367981D01*
X103746009Y-100367981D02*
X104269819Y-100367981D01*
X103222200Y-99177506D02*
X104507914Y-100034648D01*
X104269819Y-98844172D02*
X103603152Y-98844172D01*
X103269819Y-98844172D02*
X103317438Y-98891791D01*
X103317438Y-98891791D02*
X103365057Y-98844172D01*
X103365057Y-98844172D02*
X103317438Y-98796553D01*
X103317438Y-98796553D02*
X103269819Y-98844172D01*
X103269819Y-98844172D02*
X103365057Y-98844172D01*
X104269819Y-98367982D02*
X103603152Y-98367982D01*
X103793628Y-98367982D02*
X103698390Y-98320363D01*
X103698390Y-98320363D02*
X103650771Y-98272744D01*
X103650771Y-98272744D02*
X103603152Y-98177506D01*
X103603152Y-98177506D02*
X103603152Y-98082268D01*
X104269819Y-97606077D02*
X104222200Y-97701315D01*
X104222200Y-97701315D02*
X104174580Y-97748934D01*
X104174580Y-97748934D02*
X104079342Y-97796553D01*
X104079342Y-97796553D02*
X103793628Y-97796553D01*
X103793628Y-97796553D02*
X103698390Y-97748934D01*
X103698390Y-97748934D02*
X103650771Y-97701315D01*
X103650771Y-97701315D02*
X103603152Y-97606077D01*
X103603152Y-97606077D02*
X103603152Y-97463220D01*
X103603152Y-97463220D02*
X103650771Y-97367982D01*
X103650771Y-97367982D02*
X103698390Y-97320363D01*
X103698390Y-97320363D02*
X103793628Y-97272744D01*
X103793628Y-97272744D02*
X104079342Y-97272744D01*
X104079342Y-97272744D02*
X104174580Y-97320363D01*
X104174580Y-97320363D02*
X104222200Y-97367982D01*
X104222200Y-97367982D02*
X104269819Y-97463220D01*
X104269819Y-97463220D02*
X104269819Y-97606077D01*
X103603152Y-96844172D02*
X104269819Y-96844172D01*
X103698390Y-96844172D02*
X103650771Y-96796553D01*
X103650771Y-96796553D02*
X103603152Y-96701315D01*
X103603152Y-96701315D02*
X103603152Y-96558458D01*
X103603152Y-96558458D02*
X103650771Y-96463220D01*
X103650771Y-96463220D02*
X103746009Y-96415601D01*
X103746009Y-96415601D02*
X104269819Y-96415601D01*
X103603152Y-95510839D02*
X104412676Y-95510839D01*
X104412676Y-95510839D02*
X104507914Y-95558458D01*
X104507914Y-95558458D02*
X104555533Y-95606077D01*
X104555533Y-95606077D02*
X104603152Y-95701315D01*
X104603152Y-95701315D02*
X104603152Y-95844172D01*
X104603152Y-95844172D02*
X104555533Y-95939410D01*
X104222200Y-95510839D02*
X104269819Y-95606077D01*
X104269819Y-95606077D02*
X104269819Y-95796553D01*
X104269819Y-95796553D02*
X104222200Y-95891791D01*
X104222200Y-95891791D02*
X104174580Y-95939410D01*
X104174580Y-95939410D02*
X104079342Y-95987029D01*
X104079342Y-95987029D02*
X103793628Y-95987029D01*
X103793628Y-95987029D02*
X103698390Y-95939410D01*
X103698390Y-95939410D02*
X103650771Y-95891791D01*
X103650771Y-95891791D02*
X103603152Y-95796553D01*
X103603152Y-95796553D02*
X103603152Y-95606077D01*
X103603152Y-95606077D02*
X103650771Y-95510839D01*
X104269819Y-95034648D02*
X103603152Y-95034648D01*
X103269819Y-95034648D02*
X103317438Y-95082267D01*
X103317438Y-95082267D02*
X103365057Y-95034648D01*
X103365057Y-95034648D02*
X103317438Y-94987029D01*
X103317438Y-94987029D02*
X103269819Y-95034648D01*
X103269819Y-95034648D02*
X103365057Y-95034648D01*
X104269819Y-94129887D02*
X103746009Y-94129887D01*
X103746009Y-94129887D02*
X103650771Y-94177506D01*
X103650771Y-94177506D02*
X103603152Y-94272744D01*
X103603152Y-94272744D02*
X103603152Y-94463220D01*
X103603152Y-94463220D02*
X103650771Y-94558458D01*
X104222200Y-94129887D02*
X104269819Y-94225125D01*
X104269819Y-94225125D02*
X104269819Y-94463220D01*
X104269819Y-94463220D02*
X104222200Y-94558458D01*
X104222200Y-94558458D02*
X104126961Y-94606077D01*
X104126961Y-94606077D02*
X104031723Y-94606077D01*
X104031723Y-94606077D02*
X103936485Y-94558458D01*
X103936485Y-94558458D02*
X103888866Y-94463220D01*
X103888866Y-94463220D02*
X103888866Y-94225125D01*
X103888866Y-94225125D02*
X103841247Y-94129887D01*
X103603152Y-93653696D02*
X104269819Y-93653696D01*
X103698390Y-93653696D02*
X103650771Y-93606077D01*
X103650771Y-93606077D02*
X103603152Y-93510839D01*
X103603152Y-93510839D02*
X103603152Y-93367982D01*
X103603152Y-93367982D02*
X103650771Y-93272744D01*
X103650771Y-93272744D02*
X103746009Y-93225125D01*
X103746009Y-93225125D02*
X104269819Y-93225125D01*
X103603152Y-92891791D02*
X103603152Y-92510839D01*
X103269819Y-92748934D02*
X104126961Y-92748934D01*
X104126961Y-92748934D02*
X104222200Y-92701315D01*
X104222200Y-92701315D02*
X104269819Y-92606077D01*
X104269819Y-92606077D02*
X104269819Y-92510839D01*
X103269819Y-92272743D02*
X103269819Y-91653696D01*
X103269819Y-91653696D02*
X103650771Y-91987029D01*
X103650771Y-91987029D02*
X103650771Y-91844172D01*
X103650771Y-91844172D02*
X103698390Y-91748934D01*
X103698390Y-91748934D02*
X103746009Y-91701315D01*
X103746009Y-91701315D02*
X103841247Y-91653696D01*
X103841247Y-91653696D02*
X104079342Y-91653696D01*
X104079342Y-91653696D02*
X104174580Y-91701315D01*
X104174580Y-91701315D02*
X104222200Y-91748934D01*
X104222200Y-91748934D02*
X104269819Y-91844172D01*
X104269819Y-91844172D02*
X104269819Y-92129886D01*
X104269819Y-92129886D02*
X104222200Y-92225124D01*
X104222200Y-92225124D02*
X104174580Y-92272743D01*
X103269819Y-91320362D02*
X103269819Y-90701315D01*
X103269819Y-90701315D02*
X103650771Y-91034648D01*
X103650771Y-91034648D02*
X103650771Y-90891791D01*
X103650771Y-90891791D02*
X103698390Y-90796553D01*
X103698390Y-90796553D02*
X103746009Y-90748934D01*
X103746009Y-90748934D02*
X103841247Y-90701315D01*
X103841247Y-90701315D02*
X104079342Y-90701315D01*
X104079342Y-90701315D02*
X104174580Y-90748934D01*
X104174580Y-90748934D02*
X104222200Y-90796553D01*
X104222200Y-90796553D02*
X104269819Y-90891791D01*
X104269819Y-90891791D02*
X104269819Y-91177505D01*
X104269819Y-91177505D02*
X104222200Y-91272743D01*
X104222200Y-91272743D02*
X104174580Y-91320362D01*
X108369819Y-114158458D02*
X109369819Y-113920363D01*
X109369819Y-113920363D02*
X108655533Y-113729887D01*
X108655533Y-113729887D02*
X109369819Y-113539411D01*
X109369819Y-113539411D02*
X108369819Y-113301316D01*
X109369819Y-112491792D02*
X108846009Y-112491792D01*
X108846009Y-112491792D02*
X108750771Y-112539411D01*
X108750771Y-112539411D02*
X108703152Y-112634649D01*
X108703152Y-112634649D02*
X108703152Y-112825125D01*
X108703152Y-112825125D02*
X108750771Y-112920363D01*
X109322200Y-112491792D02*
X109369819Y-112587030D01*
X109369819Y-112587030D02*
X109369819Y-112825125D01*
X109369819Y-112825125D02*
X109322200Y-112920363D01*
X109322200Y-112920363D02*
X109226961Y-112967982D01*
X109226961Y-112967982D02*
X109131723Y-112967982D01*
X109131723Y-112967982D02*
X109036485Y-112920363D01*
X109036485Y-112920363D02*
X108988866Y-112825125D01*
X108988866Y-112825125D02*
X108988866Y-112587030D01*
X108988866Y-112587030D02*
X108941247Y-112491792D01*
X108703152Y-112110839D02*
X109369819Y-111872744D01*
X108703152Y-111634649D02*
X109369819Y-111872744D01*
X109369819Y-111872744D02*
X109607914Y-111967982D01*
X109607914Y-111967982D02*
X109655533Y-112015601D01*
X109655533Y-112015601D02*
X109703152Y-112110839D01*
X108369819Y-111348934D02*
X109369819Y-111110839D01*
X109369819Y-111110839D02*
X108655533Y-110920363D01*
X108655533Y-110920363D02*
X109369819Y-110729887D01*
X109369819Y-110729887D02*
X108369819Y-110491792D01*
X109369819Y-109682268D02*
X108846009Y-109682268D01*
X108846009Y-109682268D02*
X108750771Y-109729887D01*
X108750771Y-109729887D02*
X108703152Y-109825125D01*
X108703152Y-109825125D02*
X108703152Y-110015601D01*
X108703152Y-110015601D02*
X108750771Y-110110839D01*
X109322200Y-109682268D02*
X109369819Y-109777506D01*
X109369819Y-109777506D02*
X109369819Y-110015601D01*
X109369819Y-110015601D02*
X109322200Y-110110839D01*
X109322200Y-110110839D02*
X109226961Y-110158458D01*
X109226961Y-110158458D02*
X109131723Y-110158458D01*
X109131723Y-110158458D02*
X109036485Y-110110839D01*
X109036485Y-110110839D02*
X108988866Y-110015601D01*
X108988866Y-110015601D02*
X108988866Y-109777506D01*
X108988866Y-109777506D02*
X108941247Y-109682268D01*
X108703152Y-109301315D02*
X109369819Y-109063220D01*
X108703152Y-108825125D02*
X109369819Y-109063220D01*
X109369819Y-109063220D02*
X109607914Y-109158458D01*
X109607914Y-109158458D02*
X109655533Y-109206077D01*
X109655533Y-109206077D02*
X109703152Y-109301315D01*
X108369819Y-108539410D02*
X109369819Y-108301315D01*
X109369819Y-108301315D02*
X108655533Y-108110839D01*
X108655533Y-108110839D02*
X109369819Y-107920363D01*
X109369819Y-107920363D02*
X108369819Y-107682268D01*
X109369819Y-106872744D02*
X108846009Y-106872744D01*
X108846009Y-106872744D02*
X108750771Y-106920363D01*
X108750771Y-106920363D02*
X108703152Y-107015601D01*
X108703152Y-107015601D02*
X108703152Y-107206077D01*
X108703152Y-107206077D02*
X108750771Y-107301315D01*
X109322200Y-106872744D02*
X109369819Y-106967982D01*
X109369819Y-106967982D02*
X109369819Y-107206077D01*
X109369819Y-107206077D02*
X109322200Y-107301315D01*
X109322200Y-107301315D02*
X109226961Y-107348934D01*
X109226961Y-107348934D02*
X109131723Y-107348934D01*
X109131723Y-107348934D02*
X109036485Y-107301315D01*
X109036485Y-107301315D02*
X108988866Y-107206077D01*
X108988866Y-107206077D02*
X108988866Y-106967982D01*
X108988866Y-106967982D02*
X108941247Y-106872744D01*
X108703152Y-106491791D02*
X109369819Y-106253696D01*
X108703152Y-106015601D02*
X109369819Y-106253696D01*
X109369819Y-106253696D02*
X109607914Y-106348934D01*
X109607914Y-106348934D02*
X109655533Y-106396553D01*
X109655533Y-106396553D02*
X109703152Y-106491791D01*
X130504761Y-99630057D02*
X130409523Y-99582438D01*
X130409523Y-99582438D02*
X130314285Y-99487200D01*
X130314285Y-99487200D02*
X130171428Y-99344342D01*
X130171428Y-99344342D02*
X130076190Y-99296723D01*
X130076190Y-99296723D02*
X129980952Y-99296723D01*
X130028571Y-99534819D02*
X129933333Y-99487200D01*
X129933333Y-99487200D02*
X129838095Y-99391961D01*
X129838095Y-99391961D02*
X129790476Y-99201485D01*
X129790476Y-99201485D02*
X129790476Y-98868152D01*
X129790476Y-98868152D02*
X129838095Y-98677676D01*
X129838095Y-98677676D02*
X129933333Y-98582438D01*
X129933333Y-98582438D02*
X130028571Y-98534819D01*
X130028571Y-98534819D02*
X130219047Y-98534819D01*
X130219047Y-98534819D02*
X130314285Y-98582438D01*
X130314285Y-98582438D02*
X130409523Y-98677676D01*
X130409523Y-98677676D02*
X130457142Y-98868152D01*
X130457142Y-98868152D02*
X130457142Y-99201485D01*
X130457142Y-99201485D02*
X130409523Y-99391961D01*
X130409523Y-99391961D02*
X130314285Y-99487200D01*
X130314285Y-99487200D02*
X130219047Y-99534819D01*
X130219047Y-99534819D02*
X130028571Y-99534819D01*
X131314285Y-98534819D02*
X131123809Y-98534819D01*
X131123809Y-98534819D02*
X131028571Y-98582438D01*
X131028571Y-98582438D02*
X130980952Y-98630057D01*
X130980952Y-98630057D02*
X130885714Y-98772914D01*
X130885714Y-98772914D02*
X130838095Y-98963390D01*
X130838095Y-98963390D02*
X130838095Y-99344342D01*
X130838095Y-99344342D02*
X130885714Y-99439580D01*
X130885714Y-99439580D02*
X130933333Y-99487200D01*
X130933333Y-99487200D02*
X131028571Y-99534819D01*
X131028571Y-99534819D02*
X131219047Y-99534819D01*
X131219047Y-99534819D02*
X131314285Y-99487200D01*
X131314285Y-99487200D02*
X131361904Y-99439580D01*
X131361904Y-99439580D02*
X131409523Y-99344342D01*
X131409523Y-99344342D02*
X131409523Y-99106247D01*
X131409523Y-99106247D02*
X131361904Y-99011009D01*
X131361904Y-99011009D02*
X131314285Y-98963390D01*
X131314285Y-98963390D02*
X131219047Y-98915771D01*
X131219047Y-98915771D02*
X131028571Y-98915771D01*
X131028571Y-98915771D02*
X130933333Y-98963390D01*
X130933333Y-98963390D02*
X130885714Y-99011009D01*
X130885714Y-99011009D02*
X130838095Y-99106247D01*
X105106666Y-128494819D02*
X105106666Y-129209104D01*
X105106666Y-129209104D02*
X105059047Y-129351961D01*
X105059047Y-129351961D02*
X104963809Y-129447200D01*
X104963809Y-129447200D02*
X104820952Y-129494819D01*
X104820952Y-129494819D02*
X104725714Y-129494819D01*
X106011428Y-128828152D02*
X106011428Y-129494819D01*
X105773333Y-128447200D02*
X105535238Y-129161485D01*
X105535238Y-129161485D02*
X106154285Y-129161485D01*
X94461905Y-100724819D02*
X94461905Y-99724819D01*
X94461905Y-99724819D02*
X94700000Y-99724819D01*
X94700000Y-99724819D02*
X94842857Y-99772438D01*
X94842857Y-99772438D02*
X94938095Y-99867676D01*
X94938095Y-99867676D02*
X94985714Y-99962914D01*
X94985714Y-99962914D02*
X95033333Y-100153390D01*
X95033333Y-100153390D02*
X95033333Y-100296247D01*
X95033333Y-100296247D02*
X94985714Y-100486723D01*
X94985714Y-100486723D02*
X94938095Y-100581961D01*
X94938095Y-100581961D02*
X94842857Y-100677200D01*
X94842857Y-100677200D02*
X94700000Y-100724819D01*
X94700000Y-100724819D02*
X94461905Y-100724819D01*
X95938095Y-99724819D02*
X95461905Y-99724819D01*
X95461905Y-99724819D02*
X95414286Y-100201009D01*
X95414286Y-100201009D02*
X95461905Y-100153390D01*
X95461905Y-100153390D02*
X95557143Y-100105771D01*
X95557143Y-100105771D02*
X95795238Y-100105771D01*
X95795238Y-100105771D02*
X95890476Y-100153390D01*
X95890476Y-100153390D02*
X95938095Y-100201009D01*
X95938095Y-100201009D02*
X95985714Y-100296247D01*
X95985714Y-100296247D02*
X95985714Y-100534342D01*
X95985714Y-100534342D02*
X95938095Y-100629580D01*
X95938095Y-100629580D02*
X95890476Y-100677200D01*
X95890476Y-100677200D02*
X95795238Y-100724819D01*
X95795238Y-100724819D02*
X95557143Y-100724819D01*
X95557143Y-100724819D02*
X95461905Y-100677200D01*
X95461905Y-100677200D02*
X95414286Y-100629580D01*
X91571905Y-97519104D02*
X92048095Y-97519104D01*
X91476667Y-97804819D02*
X91810000Y-96804819D01*
X91810000Y-96804819D02*
X92143333Y-97804819D01*
X122673333Y-67124819D02*
X122340000Y-66648628D01*
X122101905Y-67124819D02*
X122101905Y-66124819D01*
X122101905Y-66124819D02*
X122482857Y-66124819D01*
X122482857Y-66124819D02*
X122578095Y-66172438D01*
X122578095Y-66172438D02*
X122625714Y-66220057D01*
X122625714Y-66220057D02*
X122673333Y-66315295D01*
X122673333Y-66315295D02*
X122673333Y-66458152D01*
X122673333Y-66458152D02*
X122625714Y-66553390D01*
X122625714Y-66553390D02*
X122578095Y-66601009D01*
X122578095Y-66601009D02*
X122482857Y-66648628D01*
X122482857Y-66648628D02*
X122101905Y-66648628D01*
X123244762Y-66553390D02*
X123149524Y-66505771D01*
X123149524Y-66505771D02*
X123101905Y-66458152D01*
X123101905Y-66458152D02*
X123054286Y-66362914D01*
X123054286Y-66362914D02*
X123054286Y-66315295D01*
X123054286Y-66315295D02*
X123101905Y-66220057D01*
X123101905Y-66220057D02*
X123149524Y-66172438D01*
X123149524Y-66172438D02*
X123244762Y-66124819D01*
X123244762Y-66124819D02*
X123435238Y-66124819D01*
X123435238Y-66124819D02*
X123530476Y-66172438D01*
X123530476Y-66172438D02*
X123578095Y-66220057D01*
X123578095Y-66220057D02*
X123625714Y-66315295D01*
X123625714Y-66315295D02*
X123625714Y-66362914D01*
X123625714Y-66362914D02*
X123578095Y-66458152D01*
X123578095Y-66458152D02*
X123530476Y-66505771D01*
X123530476Y-66505771D02*
X123435238Y-66553390D01*
X123435238Y-66553390D02*
X123244762Y-66553390D01*
X123244762Y-66553390D02*
X123149524Y-66601009D01*
X123149524Y-66601009D02*
X123101905Y-66648628D01*
X123101905Y-66648628D02*
X123054286Y-66743866D01*
X123054286Y-66743866D02*
X123054286Y-66934342D01*
X123054286Y-66934342D02*
X123101905Y-67029580D01*
X123101905Y-67029580D02*
X123149524Y-67077200D01*
X123149524Y-67077200D02*
X123244762Y-67124819D01*
X123244762Y-67124819D02*
X123435238Y-67124819D01*
X123435238Y-67124819D02*
X123530476Y-67077200D01*
X123530476Y-67077200D02*
X123578095Y-67029580D01*
X123578095Y-67029580D02*
X123625714Y-66934342D01*
X123625714Y-66934342D02*
X123625714Y-66743866D01*
X123625714Y-66743866D02*
X123578095Y-66648628D01*
X123578095Y-66648628D02*
X123530476Y-66601009D01*
X123530476Y-66601009D02*
X123435238Y-66553390D01*
X98260057Y-62765238D02*
X98212438Y-62860476D01*
X98212438Y-62860476D02*
X98117200Y-62955714D01*
X98117200Y-62955714D02*
X97974342Y-63098571D01*
X97974342Y-63098571D02*
X97926723Y-63193809D01*
X97926723Y-63193809D02*
X97926723Y-63289047D01*
X98164819Y-63241428D02*
X98117200Y-63336666D01*
X98117200Y-63336666D02*
X98021961Y-63431904D01*
X98021961Y-63431904D02*
X97831485Y-63479523D01*
X97831485Y-63479523D02*
X97498152Y-63479523D01*
X97498152Y-63479523D02*
X97307676Y-63431904D01*
X97307676Y-63431904D02*
X97212438Y-63336666D01*
X97212438Y-63336666D02*
X97164819Y-63241428D01*
X97164819Y-63241428D02*
X97164819Y-63050952D01*
X97164819Y-63050952D02*
X97212438Y-62955714D01*
X97212438Y-62955714D02*
X97307676Y-62860476D01*
X97307676Y-62860476D02*
X97498152Y-62812857D01*
X97498152Y-62812857D02*
X97831485Y-62812857D01*
X97831485Y-62812857D02*
X98021961Y-62860476D01*
X98021961Y-62860476D02*
X98117200Y-62955714D01*
X98117200Y-62955714D02*
X98164819Y-63050952D01*
X98164819Y-63050952D02*
X98164819Y-63241428D01*
X98164819Y-61860476D02*
X98164819Y-62431904D01*
X98164819Y-62146190D02*
X97164819Y-62146190D01*
X97164819Y-62146190D02*
X97307676Y-62241428D01*
X97307676Y-62241428D02*
X97402914Y-62336666D01*
X97402914Y-62336666D02*
X97450533Y-62431904D01*
X97426666Y-61504819D02*
X97426666Y-62219104D01*
X97426666Y-62219104D02*
X97379047Y-62361961D01*
X97379047Y-62361961D02*
X97283809Y-62457200D01*
X97283809Y-62457200D02*
X97140952Y-62504819D01*
X97140952Y-62504819D02*
X97045714Y-62504819D01*
X97855238Y-61600057D02*
X97902857Y-61552438D01*
X97902857Y-61552438D02*
X97998095Y-61504819D01*
X97998095Y-61504819D02*
X98236190Y-61504819D01*
X98236190Y-61504819D02*
X98331428Y-61552438D01*
X98331428Y-61552438D02*
X98379047Y-61600057D01*
X98379047Y-61600057D02*
X98426666Y-61695295D01*
X98426666Y-61695295D02*
X98426666Y-61790533D01*
X98426666Y-61790533D02*
X98379047Y-61933390D01*
X98379047Y-61933390D02*
X97807619Y-62504819D01*
X97807619Y-62504819D02*
X98426666Y-62504819D01*
X106933333Y-67084819D02*
X106600000Y-66608628D01*
X106361905Y-67084819D02*
X106361905Y-66084819D01*
X106361905Y-66084819D02*
X106742857Y-66084819D01*
X106742857Y-66084819D02*
X106838095Y-66132438D01*
X106838095Y-66132438D02*
X106885714Y-66180057D01*
X106885714Y-66180057D02*
X106933333Y-66275295D01*
X106933333Y-66275295D02*
X106933333Y-66418152D01*
X106933333Y-66418152D02*
X106885714Y-66513390D01*
X106885714Y-66513390D02*
X106838095Y-66561009D01*
X106838095Y-66561009D02*
X106742857Y-66608628D01*
X106742857Y-66608628D02*
X106361905Y-66608628D01*
X107790476Y-66084819D02*
X107600000Y-66084819D01*
X107600000Y-66084819D02*
X107504762Y-66132438D01*
X107504762Y-66132438D02*
X107457143Y-66180057D01*
X107457143Y-66180057D02*
X107361905Y-66322914D01*
X107361905Y-66322914D02*
X107314286Y-66513390D01*
X107314286Y-66513390D02*
X107314286Y-66894342D01*
X107314286Y-66894342D02*
X107361905Y-66989580D01*
X107361905Y-66989580D02*
X107409524Y-67037200D01*
X107409524Y-67037200D02*
X107504762Y-67084819D01*
X107504762Y-67084819D02*
X107695238Y-67084819D01*
X107695238Y-67084819D02*
X107790476Y-67037200D01*
X107790476Y-67037200D02*
X107838095Y-66989580D01*
X107838095Y-66989580D02*
X107885714Y-66894342D01*
X107885714Y-66894342D02*
X107885714Y-66656247D01*
X107885714Y-66656247D02*
X107838095Y-66561009D01*
X107838095Y-66561009D02*
X107790476Y-66513390D01*
X107790476Y-66513390D02*
X107695238Y-66465771D01*
X107695238Y-66465771D02*
X107504762Y-66465771D01*
X107504762Y-66465771D02*
X107409524Y-66513390D01*
X107409524Y-66513390D02*
X107361905Y-66561009D01*
X107361905Y-66561009D02*
X107314286Y-66656247D01*
X135058095Y-79754819D02*
X135058095Y-80564342D01*
X135058095Y-80564342D02*
X135105714Y-80659580D01*
X135105714Y-80659580D02*
X135153333Y-80707200D01*
X135153333Y-80707200D02*
X135248571Y-80754819D01*
X135248571Y-80754819D02*
X135439047Y-80754819D01*
X135439047Y-80754819D02*
X135534285Y-80707200D01*
X135534285Y-80707200D02*
X135581904Y-80659580D01*
X135581904Y-80659580D02*
X135629523Y-80564342D01*
X135629523Y-80564342D02*
X135629523Y-79754819D01*
X136058095Y-79850057D02*
X136105714Y-79802438D01*
X136105714Y-79802438D02*
X136200952Y-79754819D01*
X136200952Y-79754819D02*
X136439047Y-79754819D01*
X136439047Y-79754819D02*
X136534285Y-79802438D01*
X136534285Y-79802438D02*
X136581904Y-79850057D01*
X136581904Y-79850057D02*
X136629523Y-79945295D01*
X136629523Y-79945295D02*
X136629523Y-80040533D01*
X136629523Y-80040533D02*
X136581904Y-80183390D01*
X136581904Y-80183390D02*
X136010476Y-80754819D01*
X136010476Y-80754819D02*
X136629523Y-80754819D01*
X99720057Y-82715238D02*
X99672438Y-82810476D01*
X99672438Y-82810476D02*
X99577200Y-82905714D01*
X99577200Y-82905714D02*
X99434342Y-83048571D01*
X99434342Y-83048571D02*
X99386723Y-83143809D01*
X99386723Y-83143809D02*
X99386723Y-83239047D01*
X99624819Y-83191428D02*
X99577200Y-83286666D01*
X99577200Y-83286666D02*
X99481961Y-83381904D01*
X99481961Y-83381904D02*
X99291485Y-83429523D01*
X99291485Y-83429523D02*
X98958152Y-83429523D01*
X98958152Y-83429523D02*
X98767676Y-83381904D01*
X98767676Y-83381904D02*
X98672438Y-83286666D01*
X98672438Y-83286666D02*
X98624819Y-83191428D01*
X98624819Y-83191428D02*
X98624819Y-83000952D01*
X98624819Y-83000952D02*
X98672438Y-82905714D01*
X98672438Y-82905714D02*
X98767676Y-82810476D01*
X98767676Y-82810476D02*
X98958152Y-82762857D01*
X98958152Y-82762857D02*
X99291485Y-82762857D01*
X99291485Y-82762857D02*
X99481961Y-82810476D01*
X99481961Y-82810476D02*
X99577200Y-82905714D01*
X99577200Y-82905714D02*
X99624819Y-83000952D01*
X99624819Y-83000952D02*
X99624819Y-83191428D01*
X98624819Y-82429523D02*
X98624819Y-81810476D01*
X98624819Y-81810476D02*
X99005771Y-82143809D01*
X99005771Y-82143809D02*
X99005771Y-82000952D01*
X99005771Y-82000952D02*
X99053390Y-81905714D01*
X99053390Y-81905714D02*
X99101009Y-81858095D01*
X99101009Y-81858095D02*
X99196247Y-81810476D01*
X99196247Y-81810476D02*
X99434342Y-81810476D01*
X99434342Y-81810476D02*
X99529580Y-81858095D01*
X99529580Y-81858095D02*
X99577200Y-81905714D01*
X99577200Y-81905714D02*
X99624819Y-82000952D01*
X99624819Y-82000952D02*
X99624819Y-82286666D01*
X99624819Y-82286666D02*
X99577200Y-82381904D01*
X99577200Y-82381904D02*
X99529580Y-82429523D01*
X138157142Y-129124819D02*
X137823809Y-128648628D01*
X137585714Y-129124819D02*
X137585714Y-128124819D01*
X137585714Y-128124819D02*
X137966666Y-128124819D01*
X137966666Y-128124819D02*
X138061904Y-128172438D01*
X138061904Y-128172438D02*
X138109523Y-128220057D01*
X138109523Y-128220057D02*
X138157142Y-128315295D01*
X138157142Y-128315295D02*
X138157142Y-128458152D01*
X138157142Y-128458152D02*
X138109523Y-128553390D01*
X138109523Y-128553390D02*
X138061904Y-128601009D01*
X138061904Y-128601009D02*
X137966666Y-128648628D01*
X137966666Y-128648628D02*
X137585714Y-128648628D01*
X139109523Y-129124819D02*
X138538095Y-129124819D01*
X138823809Y-129124819D02*
X138823809Y-128124819D01*
X138823809Y-128124819D02*
X138728571Y-128267676D01*
X138728571Y-128267676D02*
X138633333Y-128362914D01*
X138633333Y-128362914D02*
X138538095Y-128410533D01*
X139966666Y-128458152D02*
X139966666Y-129124819D01*
X139728571Y-128077200D02*
X139490476Y-128791485D01*
X139490476Y-128791485D02*
X140109523Y-128791485D01*
X99720057Y-92515238D02*
X99672438Y-92610476D01*
X99672438Y-92610476D02*
X99577200Y-92705714D01*
X99577200Y-92705714D02*
X99434342Y-92848571D01*
X99434342Y-92848571D02*
X99386723Y-92943809D01*
X99386723Y-92943809D02*
X99386723Y-93039047D01*
X99624819Y-92991428D02*
X99577200Y-93086666D01*
X99577200Y-93086666D02*
X99481961Y-93181904D01*
X99481961Y-93181904D02*
X99291485Y-93229523D01*
X99291485Y-93229523D02*
X98958152Y-93229523D01*
X98958152Y-93229523D02*
X98767676Y-93181904D01*
X98767676Y-93181904D02*
X98672438Y-93086666D01*
X98672438Y-93086666D02*
X98624819Y-92991428D01*
X98624819Y-92991428D02*
X98624819Y-92800952D01*
X98624819Y-92800952D02*
X98672438Y-92705714D01*
X98672438Y-92705714D02*
X98767676Y-92610476D01*
X98767676Y-92610476D02*
X98958152Y-92562857D01*
X98958152Y-92562857D02*
X99291485Y-92562857D01*
X99291485Y-92562857D02*
X99481961Y-92610476D01*
X99481961Y-92610476D02*
X99577200Y-92705714D01*
X99577200Y-92705714D02*
X99624819Y-92800952D01*
X99624819Y-92800952D02*
X99624819Y-92991428D01*
X98958152Y-91705714D02*
X99624819Y-91705714D01*
X98577200Y-91943809D02*
X99291485Y-92181904D01*
X99291485Y-92181904D02*
X99291485Y-91562857D01*
X106953333Y-58694819D02*
X106620000Y-58218628D01*
X106381905Y-58694819D02*
X106381905Y-57694819D01*
X106381905Y-57694819D02*
X106762857Y-57694819D01*
X106762857Y-57694819D02*
X106858095Y-57742438D01*
X106858095Y-57742438D02*
X106905714Y-57790057D01*
X106905714Y-57790057D02*
X106953333Y-57885295D01*
X106953333Y-57885295D02*
X106953333Y-58028152D01*
X106953333Y-58028152D02*
X106905714Y-58123390D01*
X106905714Y-58123390D02*
X106858095Y-58171009D01*
X106858095Y-58171009D02*
X106762857Y-58218628D01*
X106762857Y-58218628D02*
X106381905Y-58218628D01*
X107334286Y-57790057D02*
X107381905Y-57742438D01*
X107381905Y-57742438D02*
X107477143Y-57694819D01*
X107477143Y-57694819D02*
X107715238Y-57694819D01*
X107715238Y-57694819D02*
X107810476Y-57742438D01*
X107810476Y-57742438D02*
X107858095Y-57790057D01*
X107858095Y-57790057D02*
X107905714Y-57885295D01*
X107905714Y-57885295D02*
X107905714Y-57980533D01*
X107905714Y-57980533D02*
X107858095Y-58123390D01*
X107858095Y-58123390D02*
X107286667Y-58694819D01*
X107286667Y-58694819D02*
X107905714Y-58694819D01*
X137914761Y-99720057D02*
X137819523Y-99672438D01*
X137819523Y-99672438D02*
X137724285Y-99577200D01*
X137724285Y-99577200D02*
X137581428Y-99434342D01*
X137581428Y-99434342D02*
X137486190Y-99386723D01*
X137486190Y-99386723D02*
X137390952Y-99386723D01*
X137438571Y-99624819D02*
X137343333Y-99577200D01*
X137343333Y-99577200D02*
X137248095Y-99481961D01*
X137248095Y-99481961D02*
X137200476Y-99291485D01*
X137200476Y-99291485D02*
X137200476Y-98958152D01*
X137200476Y-98958152D02*
X137248095Y-98767676D01*
X137248095Y-98767676D02*
X137343333Y-98672438D01*
X137343333Y-98672438D02*
X137438571Y-98624819D01*
X137438571Y-98624819D02*
X137629047Y-98624819D01*
X137629047Y-98624819D02*
X137724285Y-98672438D01*
X137724285Y-98672438D02*
X137819523Y-98767676D01*
X137819523Y-98767676D02*
X137867142Y-98958152D01*
X137867142Y-98958152D02*
X137867142Y-99291485D01*
X137867142Y-99291485D02*
X137819523Y-99481961D01*
X137819523Y-99481961D02*
X137724285Y-99577200D01*
X137724285Y-99577200D02*
X137629047Y-99624819D01*
X137629047Y-99624819D02*
X137438571Y-99624819D01*
X138200476Y-98624819D02*
X138867142Y-98624819D01*
X138867142Y-98624819D02*
X138438571Y-99624819D01*
X94011905Y-61104819D02*
X94011905Y-60104819D01*
X94011905Y-60104819D02*
X94250000Y-60104819D01*
X94250000Y-60104819D02*
X94392857Y-60152438D01*
X94392857Y-60152438D02*
X94488095Y-60247676D01*
X94488095Y-60247676D02*
X94535714Y-60342914D01*
X94535714Y-60342914D02*
X94583333Y-60533390D01*
X94583333Y-60533390D02*
X94583333Y-60676247D01*
X94583333Y-60676247D02*
X94535714Y-60866723D01*
X94535714Y-60866723D02*
X94488095Y-60961961D01*
X94488095Y-60961961D02*
X94392857Y-61057200D01*
X94392857Y-61057200D02*
X94250000Y-61104819D01*
X94250000Y-61104819D02*
X94011905Y-61104819D01*
X95535714Y-61104819D02*
X94964286Y-61104819D01*
X95250000Y-61104819D02*
X95250000Y-60104819D01*
X95250000Y-60104819D02*
X95154762Y-60247676D01*
X95154762Y-60247676D02*
X95059524Y-60342914D01*
X95059524Y-60342914D02*
X94964286Y-60390533D01*
X91121905Y-57899104D02*
X91598095Y-57899104D01*
X91026667Y-58184819D02*
X91360000Y-57184819D01*
X91360000Y-57184819D02*
X91693333Y-58184819D01*
X94531905Y-80984819D02*
X94531905Y-79984819D01*
X94531905Y-79984819D02*
X94770000Y-79984819D01*
X94770000Y-79984819D02*
X94912857Y-80032438D01*
X94912857Y-80032438D02*
X95008095Y-80127676D01*
X95008095Y-80127676D02*
X95055714Y-80222914D01*
X95055714Y-80222914D02*
X95103333Y-80413390D01*
X95103333Y-80413390D02*
X95103333Y-80556247D01*
X95103333Y-80556247D02*
X95055714Y-80746723D01*
X95055714Y-80746723D02*
X95008095Y-80841961D01*
X95008095Y-80841961D02*
X94912857Y-80937200D01*
X94912857Y-80937200D02*
X94770000Y-80984819D01*
X94770000Y-80984819D02*
X94531905Y-80984819D01*
X95436667Y-79984819D02*
X96055714Y-79984819D01*
X96055714Y-79984819D02*
X95722381Y-80365771D01*
X95722381Y-80365771D02*
X95865238Y-80365771D01*
X95865238Y-80365771D02*
X95960476Y-80413390D01*
X95960476Y-80413390D02*
X96008095Y-80461009D01*
X96008095Y-80461009D02*
X96055714Y-80556247D01*
X96055714Y-80556247D02*
X96055714Y-80794342D01*
X96055714Y-80794342D02*
X96008095Y-80889580D01*
X96008095Y-80889580D02*
X95960476Y-80937200D01*
X95960476Y-80937200D02*
X95865238Y-80984819D01*
X95865238Y-80984819D02*
X95579524Y-80984819D01*
X95579524Y-80984819D02*
X95484286Y-80937200D01*
X95484286Y-80937200D02*
X95436667Y-80889580D01*
X91641905Y-77779104D02*
X92118095Y-77779104D01*
X91546667Y-78064819D02*
X91880000Y-77064819D01*
X91880000Y-77064819D02*
X92213333Y-78064819D01*
X106953333Y-62954819D02*
X106620000Y-62478628D01*
X106381905Y-62954819D02*
X106381905Y-61954819D01*
X106381905Y-61954819D02*
X106762857Y-61954819D01*
X106762857Y-61954819D02*
X106858095Y-62002438D01*
X106858095Y-62002438D02*
X106905714Y-62050057D01*
X106905714Y-62050057D02*
X106953333Y-62145295D01*
X106953333Y-62145295D02*
X106953333Y-62288152D01*
X106953333Y-62288152D02*
X106905714Y-62383390D01*
X106905714Y-62383390D02*
X106858095Y-62431009D01*
X106858095Y-62431009D02*
X106762857Y-62478628D01*
X106762857Y-62478628D02*
X106381905Y-62478628D01*
X107286667Y-61954819D02*
X107905714Y-61954819D01*
X107905714Y-61954819D02*
X107572381Y-62335771D01*
X107572381Y-62335771D02*
X107715238Y-62335771D01*
X107715238Y-62335771D02*
X107810476Y-62383390D01*
X107810476Y-62383390D02*
X107858095Y-62431009D01*
X107858095Y-62431009D02*
X107905714Y-62526247D01*
X107905714Y-62526247D02*
X107905714Y-62764342D01*
X107905714Y-62764342D02*
X107858095Y-62859580D01*
X107858095Y-62859580D02*
X107810476Y-62907200D01*
X107810476Y-62907200D02*
X107715238Y-62954819D01*
X107715238Y-62954819D02*
X107429524Y-62954819D01*
X107429524Y-62954819D02*
X107334286Y-62907200D01*
X107334286Y-62907200D02*
X107286667Y-62859580D01*
X122673333Y-57074819D02*
X122340000Y-56598628D01*
X122101905Y-57074819D02*
X122101905Y-56074819D01*
X122101905Y-56074819D02*
X122482857Y-56074819D01*
X122482857Y-56074819D02*
X122578095Y-56122438D01*
X122578095Y-56122438D02*
X122625714Y-56170057D01*
X122625714Y-56170057D02*
X122673333Y-56265295D01*
X122673333Y-56265295D02*
X122673333Y-56408152D01*
X122673333Y-56408152D02*
X122625714Y-56503390D01*
X122625714Y-56503390D02*
X122578095Y-56551009D01*
X122578095Y-56551009D02*
X122482857Y-56598628D01*
X122482857Y-56598628D02*
X122101905Y-56598628D01*
X123530476Y-56408152D02*
X123530476Y-57074819D01*
X123292381Y-56027200D02*
X123054286Y-56741485D01*
X123054286Y-56741485D02*
X123673333Y-56741485D01*
X97524819Y-121946666D02*
X97048628Y-122279999D01*
X97524819Y-122518094D02*
X96524819Y-122518094D01*
X96524819Y-122518094D02*
X96524819Y-122137142D01*
X96524819Y-122137142D02*
X96572438Y-122041904D01*
X96572438Y-122041904D02*
X96620057Y-121994285D01*
X96620057Y-121994285D02*
X96715295Y-121946666D01*
X96715295Y-121946666D02*
X96858152Y-121946666D01*
X96858152Y-121946666D02*
X96953390Y-121994285D01*
X96953390Y-121994285D02*
X97001009Y-122041904D01*
X97001009Y-122041904D02*
X97048628Y-122137142D01*
X97048628Y-122137142D02*
X97048628Y-122518094D01*
X97524819Y-121470475D02*
X97524819Y-121279999D01*
X97524819Y-121279999D02*
X97477200Y-121184761D01*
X97477200Y-121184761D02*
X97429580Y-121137142D01*
X97429580Y-121137142D02*
X97286723Y-121041904D01*
X97286723Y-121041904D02*
X97096247Y-120994285D01*
X97096247Y-120994285D02*
X96715295Y-120994285D01*
X96715295Y-120994285D02*
X96620057Y-121041904D01*
X96620057Y-121041904D02*
X96572438Y-121089523D01*
X96572438Y-121089523D02*
X96524819Y-121184761D01*
X96524819Y-121184761D02*
X96524819Y-121375237D01*
X96524819Y-121375237D02*
X96572438Y-121470475D01*
X96572438Y-121470475D02*
X96620057Y-121518094D01*
X96620057Y-121518094D02*
X96715295Y-121565713D01*
X96715295Y-121565713D02*
X96953390Y-121565713D01*
X96953390Y-121565713D02*
X97048628Y-121518094D01*
X97048628Y-121518094D02*
X97096247Y-121470475D01*
X97096247Y-121470475D02*
X97143866Y-121375237D01*
X97143866Y-121375237D02*
X97143866Y-121184761D01*
X97143866Y-121184761D02*
X97096247Y-121089523D01*
X97096247Y-121089523D02*
X97048628Y-121041904D01*
X97048628Y-121041904D02*
X96953390Y-120994285D01*
X100106666Y-128294819D02*
X100106666Y-129009104D01*
X100106666Y-129009104D02*
X100059047Y-129151961D01*
X100059047Y-129151961D02*
X99963809Y-129247200D01*
X99963809Y-129247200D02*
X99820952Y-129294819D01*
X99820952Y-129294819D02*
X99725714Y-129294819D01*
X101106666Y-129294819D02*
X100535238Y-129294819D01*
X100820952Y-129294819D02*
X100820952Y-128294819D01*
X100820952Y-128294819D02*
X100725714Y-128437676D01*
X100725714Y-128437676D02*
X100630476Y-128532914D01*
X100630476Y-128532914D02*
X100535238Y-128580533D01*
X99250057Y-102495238D02*
X99202438Y-102590476D01*
X99202438Y-102590476D02*
X99107200Y-102685714D01*
X99107200Y-102685714D02*
X98964342Y-102828571D01*
X98964342Y-102828571D02*
X98916723Y-102923809D01*
X98916723Y-102923809D02*
X98916723Y-103019047D01*
X99154819Y-102971428D02*
X99107200Y-103066666D01*
X99107200Y-103066666D02*
X99011961Y-103161904D01*
X99011961Y-103161904D02*
X98821485Y-103209523D01*
X98821485Y-103209523D02*
X98488152Y-103209523D01*
X98488152Y-103209523D02*
X98297676Y-103161904D01*
X98297676Y-103161904D02*
X98202438Y-103066666D01*
X98202438Y-103066666D02*
X98154819Y-102971428D01*
X98154819Y-102971428D02*
X98154819Y-102780952D01*
X98154819Y-102780952D02*
X98202438Y-102685714D01*
X98202438Y-102685714D02*
X98297676Y-102590476D01*
X98297676Y-102590476D02*
X98488152Y-102542857D01*
X98488152Y-102542857D02*
X98821485Y-102542857D01*
X98821485Y-102542857D02*
X99011961Y-102590476D01*
X99011961Y-102590476D02*
X99107200Y-102685714D01*
X99107200Y-102685714D02*
X99154819Y-102780952D01*
X99154819Y-102780952D02*
X99154819Y-102971428D01*
X98154819Y-101638095D02*
X98154819Y-102114285D01*
X98154819Y-102114285D02*
X98631009Y-102161904D01*
X98631009Y-102161904D02*
X98583390Y-102114285D01*
X98583390Y-102114285D02*
X98535771Y-102019047D01*
X98535771Y-102019047D02*
X98535771Y-101780952D01*
X98535771Y-101780952D02*
X98583390Y-101685714D01*
X98583390Y-101685714D02*
X98631009Y-101638095D01*
X98631009Y-101638095D02*
X98726247Y-101590476D01*
X98726247Y-101590476D02*
X98964342Y-101590476D01*
X98964342Y-101590476D02*
X99059580Y-101638095D01*
X99059580Y-101638095D02*
X99107200Y-101685714D01*
X99107200Y-101685714D02*
X99154819Y-101780952D01*
X99154819Y-101780952D02*
X99154819Y-102019047D01*
X99154819Y-102019047D02*
X99107200Y-102114285D01*
X99107200Y-102114285D02*
X99059580Y-102161904D01*
X126194819Y-113362857D02*
X125718628Y-113696190D01*
X126194819Y-113934285D02*
X125194819Y-113934285D01*
X125194819Y-113934285D02*
X125194819Y-113553333D01*
X125194819Y-113553333D02*
X125242438Y-113458095D01*
X125242438Y-113458095D02*
X125290057Y-113410476D01*
X125290057Y-113410476D02*
X125385295Y-113362857D01*
X125385295Y-113362857D02*
X125528152Y-113362857D01*
X125528152Y-113362857D02*
X125623390Y-113410476D01*
X125623390Y-113410476D02*
X125671009Y-113458095D01*
X125671009Y-113458095D02*
X125718628Y-113553333D01*
X125718628Y-113553333D02*
X125718628Y-113934285D01*
X126194819Y-112410476D02*
X126194819Y-112981904D01*
X126194819Y-112696190D02*
X125194819Y-112696190D01*
X125194819Y-112696190D02*
X125337676Y-112791428D01*
X125337676Y-112791428D02*
X125432914Y-112886666D01*
X125432914Y-112886666D02*
X125480533Y-112981904D01*
X126194819Y-111458095D02*
X126194819Y-112029523D01*
X126194819Y-111743809D02*
X125194819Y-111743809D01*
X125194819Y-111743809D02*
X125337676Y-111839047D01*
X125337676Y-111839047D02*
X125432914Y-111934285D01*
X125432914Y-111934285D02*
X125480533Y-112029523D01*
X131744819Y-92552857D02*
X131268628Y-92886190D01*
X131744819Y-93124285D02*
X130744819Y-93124285D01*
X130744819Y-93124285D02*
X130744819Y-92743333D01*
X130744819Y-92743333D02*
X130792438Y-92648095D01*
X130792438Y-92648095D02*
X130840057Y-92600476D01*
X130840057Y-92600476D02*
X130935295Y-92552857D01*
X130935295Y-92552857D02*
X131078152Y-92552857D01*
X131078152Y-92552857D02*
X131173390Y-92600476D01*
X131173390Y-92600476D02*
X131221009Y-92648095D01*
X131221009Y-92648095D02*
X131268628Y-92743333D01*
X131268628Y-92743333D02*
X131268628Y-93124285D01*
X131744819Y-91600476D02*
X131744819Y-92171904D01*
X131744819Y-91886190D02*
X130744819Y-91886190D01*
X130744819Y-91886190D02*
X130887676Y-91981428D01*
X130887676Y-91981428D02*
X130982914Y-92076666D01*
X130982914Y-92076666D02*
X131030533Y-92171904D01*
X130744819Y-90695714D02*
X130744819Y-91171904D01*
X130744819Y-91171904D02*
X131221009Y-91219523D01*
X131221009Y-91219523D02*
X131173390Y-91171904D01*
X131173390Y-91171904D02*
X131125771Y-91076666D01*
X131125771Y-91076666D02*
X131125771Y-90838571D01*
X131125771Y-90838571D02*
X131173390Y-90743333D01*
X131173390Y-90743333D02*
X131221009Y-90695714D01*
X131221009Y-90695714D02*
X131316247Y-90648095D01*
X131316247Y-90648095D02*
X131554342Y-90648095D01*
X131554342Y-90648095D02*
X131649580Y-90695714D01*
X131649580Y-90695714D02*
X131697200Y-90743333D01*
X131697200Y-90743333D02*
X131744819Y-90838571D01*
X131744819Y-90838571D02*
X131744819Y-91076666D01*
X131744819Y-91076666D02*
X131697200Y-91171904D01*
X131697200Y-91171904D02*
X131649580Y-91219523D01*
X122137142Y-54444819D02*
X121803809Y-53968628D01*
X121565714Y-54444819D02*
X121565714Y-53444819D01*
X121565714Y-53444819D02*
X121946666Y-53444819D01*
X121946666Y-53444819D02*
X122041904Y-53492438D01*
X122041904Y-53492438D02*
X122089523Y-53540057D01*
X122089523Y-53540057D02*
X122137142Y-53635295D01*
X122137142Y-53635295D02*
X122137142Y-53778152D01*
X122137142Y-53778152D02*
X122089523Y-53873390D01*
X122089523Y-53873390D02*
X122041904Y-53921009D01*
X122041904Y-53921009D02*
X121946666Y-53968628D01*
X121946666Y-53968628D02*
X121565714Y-53968628D01*
X123089523Y-54444819D02*
X122518095Y-54444819D01*
X122803809Y-54444819D02*
X122803809Y-53444819D01*
X122803809Y-53444819D02*
X122708571Y-53587676D01*
X122708571Y-53587676D02*
X122613333Y-53682914D01*
X122613333Y-53682914D02*
X122518095Y-53730533D01*
X123708571Y-53444819D02*
X123803809Y-53444819D01*
X123803809Y-53444819D02*
X123899047Y-53492438D01*
X123899047Y-53492438D02*
X123946666Y-53540057D01*
X123946666Y-53540057D02*
X123994285Y-53635295D01*
X123994285Y-53635295D02*
X124041904Y-53825771D01*
X124041904Y-53825771D02*
X124041904Y-54063866D01*
X124041904Y-54063866D02*
X123994285Y-54254342D01*
X123994285Y-54254342D02*
X123946666Y-54349580D01*
X123946666Y-54349580D02*
X123899047Y-54397200D01*
X123899047Y-54397200D02*
X123803809Y-54444819D01*
X123803809Y-54444819D02*
X123708571Y-54444819D01*
X123708571Y-54444819D02*
X123613333Y-54397200D01*
X123613333Y-54397200D02*
X123565714Y-54349580D01*
X123565714Y-54349580D02*
X123518095Y-54254342D01*
X123518095Y-54254342D02*
X123470476Y-54063866D01*
X123470476Y-54063866D02*
X123470476Y-53825771D01*
X123470476Y-53825771D02*
X123518095Y-53635295D01*
X123518095Y-53635295D02*
X123565714Y-53540057D01*
X123565714Y-53540057D02*
X123613333Y-53492438D01*
X123613333Y-53492438D02*
X123708571Y-53444819D01*
X94001905Y-70904819D02*
X94001905Y-69904819D01*
X94001905Y-69904819D02*
X94240000Y-69904819D01*
X94240000Y-69904819D02*
X94382857Y-69952438D01*
X94382857Y-69952438D02*
X94478095Y-70047676D01*
X94478095Y-70047676D02*
X94525714Y-70142914D01*
X94525714Y-70142914D02*
X94573333Y-70333390D01*
X94573333Y-70333390D02*
X94573333Y-70476247D01*
X94573333Y-70476247D02*
X94525714Y-70666723D01*
X94525714Y-70666723D02*
X94478095Y-70761961D01*
X94478095Y-70761961D02*
X94382857Y-70857200D01*
X94382857Y-70857200D02*
X94240000Y-70904819D01*
X94240000Y-70904819D02*
X94001905Y-70904819D01*
X94954286Y-70000057D02*
X95001905Y-69952438D01*
X95001905Y-69952438D02*
X95097143Y-69904819D01*
X95097143Y-69904819D02*
X95335238Y-69904819D01*
X95335238Y-69904819D02*
X95430476Y-69952438D01*
X95430476Y-69952438D02*
X95478095Y-70000057D01*
X95478095Y-70000057D02*
X95525714Y-70095295D01*
X95525714Y-70095295D02*
X95525714Y-70190533D01*
X95525714Y-70190533D02*
X95478095Y-70333390D01*
X95478095Y-70333390D02*
X94906667Y-70904819D01*
X94906667Y-70904819D02*
X95525714Y-70904819D01*
X91111905Y-67699104D02*
X91588095Y-67699104D01*
X91016667Y-67984819D02*
X91350000Y-66984819D01*
X91350000Y-66984819D02*
X91683333Y-67984819D01*
X125854819Y-76902857D02*
X125378628Y-77236190D01*
X125854819Y-77474285D02*
X124854819Y-77474285D01*
X124854819Y-77474285D02*
X124854819Y-77093333D01*
X124854819Y-77093333D02*
X124902438Y-76998095D01*
X124902438Y-76998095D02*
X124950057Y-76950476D01*
X124950057Y-76950476D02*
X125045295Y-76902857D01*
X125045295Y-76902857D02*
X125188152Y-76902857D01*
X125188152Y-76902857D02*
X125283390Y-76950476D01*
X125283390Y-76950476D02*
X125331009Y-76998095D01*
X125331009Y-76998095D02*
X125378628Y-77093333D01*
X125378628Y-77093333D02*
X125378628Y-77474285D01*
X125854819Y-75950476D02*
X125854819Y-76521904D01*
X125854819Y-76236190D02*
X124854819Y-76236190D01*
X124854819Y-76236190D02*
X124997676Y-76331428D01*
X124997676Y-76331428D02*
X125092914Y-76426666D01*
X125092914Y-76426666D02*
X125140533Y-76521904D01*
X124950057Y-75569523D02*
X124902438Y-75521904D01*
X124902438Y-75521904D02*
X124854819Y-75426666D01*
X124854819Y-75426666D02*
X124854819Y-75188571D01*
X124854819Y-75188571D02*
X124902438Y-75093333D01*
X124902438Y-75093333D02*
X124950057Y-75045714D01*
X124950057Y-75045714D02*
X125045295Y-74998095D01*
X125045295Y-74998095D02*
X125140533Y-74998095D01*
X125140533Y-74998095D02*
X125283390Y-75045714D01*
X125283390Y-75045714D02*
X125854819Y-75617142D01*
X125854819Y-75617142D02*
X125854819Y-74998095D01*
X94481905Y-90884819D02*
X94481905Y-89884819D01*
X94481905Y-89884819D02*
X94720000Y-89884819D01*
X94720000Y-89884819D02*
X94862857Y-89932438D01*
X94862857Y-89932438D02*
X94958095Y-90027676D01*
X94958095Y-90027676D02*
X95005714Y-90122914D01*
X95005714Y-90122914D02*
X95053333Y-90313390D01*
X95053333Y-90313390D02*
X95053333Y-90456247D01*
X95053333Y-90456247D02*
X95005714Y-90646723D01*
X95005714Y-90646723D02*
X94958095Y-90741961D01*
X94958095Y-90741961D02*
X94862857Y-90837200D01*
X94862857Y-90837200D02*
X94720000Y-90884819D01*
X94720000Y-90884819D02*
X94481905Y-90884819D01*
X95910476Y-90218152D02*
X95910476Y-90884819D01*
X95672381Y-89837200D02*
X95434286Y-90551485D01*
X95434286Y-90551485D02*
X96053333Y-90551485D01*
X91591905Y-87679104D02*
X92068095Y-87679104D01*
X91496667Y-87964819D02*
X91830000Y-86964819D01*
X91830000Y-86964819D02*
X92163333Y-87964819D01*
X99620057Y-72725238D02*
X99572438Y-72820476D01*
X99572438Y-72820476D02*
X99477200Y-72915714D01*
X99477200Y-72915714D02*
X99334342Y-73058571D01*
X99334342Y-73058571D02*
X99286723Y-73153809D01*
X99286723Y-73153809D02*
X99286723Y-73249047D01*
X99524819Y-73201428D02*
X99477200Y-73296666D01*
X99477200Y-73296666D02*
X99381961Y-73391904D01*
X99381961Y-73391904D02*
X99191485Y-73439523D01*
X99191485Y-73439523D02*
X98858152Y-73439523D01*
X98858152Y-73439523D02*
X98667676Y-73391904D01*
X98667676Y-73391904D02*
X98572438Y-73296666D01*
X98572438Y-73296666D02*
X98524819Y-73201428D01*
X98524819Y-73201428D02*
X98524819Y-73010952D01*
X98524819Y-73010952D02*
X98572438Y-72915714D01*
X98572438Y-72915714D02*
X98667676Y-72820476D01*
X98667676Y-72820476D02*
X98858152Y-72772857D01*
X98858152Y-72772857D02*
X99191485Y-72772857D01*
X99191485Y-72772857D02*
X99381961Y-72820476D01*
X99381961Y-72820476D02*
X99477200Y-72915714D01*
X99477200Y-72915714D02*
X99524819Y-73010952D01*
X99524819Y-73010952D02*
X99524819Y-73201428D01*
X98620057Y-72391904D02*
X98572438Y-72344285D01*
X98572438Y-72344285D02*
X98524819Y-72249047D01*
X98524819Y-72249047D02*
X98524819Y-72010952D01*
X98524819Y-72010952D02*
X98572438Y-71915714D01*
X98572438Y-71915714D02*
X98620057Y-71868095D01*
X98620057Y-71868095D02*
X98715295Y-71820476D01*
X98715295Y-71820476D02*
X98810533Y-71820476D01*
X98810533Y-71820476D02*
X98953390Y-71868095D01*
X98953390Y-71868095D02*
X99524819Y-72439523D01*
X99524819Y-72439523D02*
X99524819Y-71820476D01*
X133528571Y-105130057D02*
X133433333Y-105082438D01*
X133433333Y-105082438D02*
X133338095Y-104987200D01*
X133338095Y-104987200D02*
X133195238Y-104844342D01*
X133195238Y-104844342D02*
X133100000Y-104796723D01*
X133100000Y-104796723D02*
X133004762Y-104796723D01*
X133052381Y-105034819D02*
X132957143Y-104987200D01*
X132957143Y-104987200D02*
X132861905Y-104891961D01*
X132861905Y-104891961D02*
X132814286Y-104701485D01*
X132814286Y-104701485D02*
X132814286Y-104368152D01*
X132814286Y-104368152D02*
X132861905Y-104177676D01*
X132861905Y-104177676D02*
X132957143Y-104082438D01*
X132957143Y-104082438D02*
X133052381Y-104034819D01*
X133052381Y-104034819D02*
X133242857Y-104034819D01*
X133242857Y-104034819D02*
X133338095Y-104082438D01*
X133338095Y-104082438D02*
X133433333Y-104177676D01*
X133433333Y-104177676D02*
X133480952Y-104368152D01*
X133480952Y-104368152D02*
X133480952Y-104701485D01*
X133480952Y-104701485D02*
X133433333Y-104891961D01*
X133433333Y-104891961D02*
X133338095Y-104987200D01*
X133338095Y-104987200D02*
X133242857Y-105034819D01*
X133242857Y-105034819D02*
X133052381Y-105034819D01*
X134433333Y-105034819D02*
X133861905Y-105034819D01*
X134147619Y-105034819D02*
X134147619Y-104034819D01*
X134147619Y-104034819D02*
X134052381Y-104177676D01*
X134052381Y-104177676D02*
X133957143Y-104272914D01*
X133957143Y-104272914D02*
X133861905Y-104320533D01*
X135385714Y-105034819D02*
X134814286Y-105034819D01*
X135100000Y-105034819D02*
X135100000Y-104034819D01*
X135100000Y-104034819D02*
X135004762Y-104177676D01*
X135004762Y-104177676D02*
X134909524Y-104272914D01*
X134909524Y-104272914D02*
X134814286Y-104320533D01*
X118513333Y-135224819D02*
X118180000Y-134748628D01*
X117941905Y-135224819D02*
X117941905Y-134224819D01*
X117941905Y-134224819D02*
X118322857Y-134224819D01*
X118322857Y-134224819D02*
X118418095Y-134272438D01*
X118418095Y-134272438D02*
X118465714Y-134320057D01*
X118465714Y-134320057D02*
X118513333Y-134415295D01*
X118513333Y-134415295D02*
X118513333Y-134558152D01*
X118513333Y-134558152D02*
X118465714Y-134653390D01*
X118465714Y-134653390D02*
X118418095Y-134701009D01*
X118418095Y-134701009D02*
X118322857Y-134748628D01*
X118322857Y-134748628D02*
X117941905Y-134748628D01*
X118846667Y-134224819D02*
X119513333Y-134224819D01*
X119513333Y-134224819D02*
X119084762Y-135224819D01*
X130570057Y-71105238D02*
X130522438Y-71200476D01*
X130522438Y-71200476D02*
X130427200Y-71295714D01*
X130427200Y-71295714D02*
X130284342Y-71438571D01*
X130284342Y-71438571D02*
X130236723Y-71533809D01*
X130236723Y-71533809D02*
X130236723Y-71629047D01*
X130474819Y-71581428D02*
X130427200Y-71676666D01*
X130427200Y-71676666D02*
X130331961Y-71771904D01*
X130331961Y-71771904D02*
X130141485Y-71819523D01*
X130141485Y-71819523D02*
X129808152Y-71819523D01*
X129808152Y-71819523D02*
X129617676Y-71771904D01*
X129617676Y-71771904D02*
X129522438Y-71676666D01*
X129522438Y-71676666D02*
X129474819Y-71581428D01*
X129474819Y-71581428D02*
X129474819Y-71390952D01*
X129474819Y-71390952D02*
X129522438Y-71295714D01*
X129522438Y-71295714D02*
X129617676Y-71200476D01*
X129617676Y-71200476D02*
X129808152Y-71152857D01*
X129808152Y-71152857D02*
X130141485Y-71152857D01*
X130141485Y-71152857D02*
X130331961Y-71200476D01*
X130331961Y-71200476D02*
X130427200Y-71295714D01*
X130427200Y-71295714D02*
X130474819Y-71390952D01*
X130474819Y-71390952D02*
X130474819Y-71581428D01*
X130474819Y-70676666D02*
X130474819Y-70486190D01*
X130474819Y-70486190D02*
X130427200Y-70390952D01*
X130427200Y-70390952D02*
X130379580Y-70343333D01*
X130379580Y-70343333D02*
X130236723Y-70248095D01*
X130236723Y-70248095D02*
X130046247Y-70200476D01*
X130046247Y-70200476D02*
X129665295Y-70200476D01*
X129665295Y-70200476D02*
X129570057Y-70248095D01*
X129570057Y-70248095D02*
X129522438Y-70295714D01*
X129522438Y-70295714D02*
X129474819Y-70390952D01*
X129474819Y-70390952D02*
X129474819Y-70581428D01*
X129474819Y-70581428D02*
X129522438Y-70676666D01*
X129522438Y-70676666D02*
X129570057Y-70724285D01*
X129570057Y-70724285D02*
X129665295Y-70771904D01*
X129665295Y-70771904D02*
X129903390Y-70771904D01*
X129903390Y-70771904D02*
X129998628Y-70724285D01*
X129998628Y-70724285D02*
X130046247Y-70676666D01*
X130046247Y-70676666D02*
X130093866Y-70581428D01*
X130093866Y-70581428D02*
X130093866Y-70390952D01*
X130093866Y-70390952D02*
X130046247Y-70295714D01*
X130046247Y-70295714D02*
X129998628Y-70248095D01*
X129998628Y-70248095D02*
X129903390Y-70200476D01*
X106953333Y-54494819D02*
X106620000Y-54018628D01*
X106381905Y-54494819D02*
X106381905Y-53494819D01*
X106381905Y-53494819D02*
X106762857Y-53494819D01*
X106762857Y-53494819D02*
X106858095Y-53542438D01*
X106858095Y-53542438D02*
X106905714Y-53590057D01*
X106905714Y-53590057D02*
X106953333Y-53685295D01*
X106953333Y-53685295D02*
X106953333Y-53828152D01*
X106953333Y-53828152D02*
X106905714Y-53923390D01*
X106905714Y-53923390D02*
X106858095Y-53971009D01*
X106858095Y-53971009D02*
X106762857Y-54018628D01*
X106762857Y-54018628D02*
X106381905Y-54018628D01*
X107905714Y-54494819D02*
X107334286Y-54494819D01*
X107620000Y-54494819D02*
X107620000Y-53494819D01*
X107620000Y-53494819D02*
X107524762Y-53637676D01*
X107524762Y-53637676D02*
X107429524Y-53732914D01*
X107429524Y-53732914D02*
X107334286Y-53780533D01*
X136994819Y-113548094D02*
X135994819Y-113548094D01*
X135994819Y-113548094D02*
X135994819Y-113309999D01*
X135994819Y-113309999D02*
X136042438Y-113167142D01*
X136042438Y-113167142D02*
X136137676Y-113071904D01*
X136137676Y-113071904D02*
X136232914Y-113024285D01*
X136232914Y-113024285D02*
X136423390Y-112976666D01*
X136423390Y-112976666D02*
X136566247Y-112976666D01*
X136566247Y-112976666D02*
X136756723Y-113024285D01*
X136756723Y-113024285D02*
X136851961Y-113071904D01*
X136851961Y-113071904D02*
X136947200Y-113167142D01*
X136947200Y-113167142D02*
X136994819Y-113309999D01*
X136994819Y-113309999D02*
X136994819Y-113548094D01*
X135994819Y-112643332D02*
X135994819Y-111976666D01*
X135994819Y-111976666D02*
X136994819Y-112405237D01*
X137364819Y-118151904D02*
X136364819Y-118151904D01*
X137364819Y-117580476D02*
X136793390Y-118009047D01*
X136364819Y-117580476D02*
X136936247Y-118151904D01*
X136260057Y-71105238D02*
X136212438Y-71200476D01*
X136212438Y-71200476D02*
X136117200Y-71295714D01*
X136117200Y-71295714D02*
X135974342Y-71438571D01*
X135974342Y-71438571D02*
X135926723Y-71533809D01*
X135926723Y-71533809D02*
X135926723Y-71629047D01*
X136164819Y-71581428D02*
X136117200Y-71676666D01*
X136117200Y-71676666D02*
X136021961Y-71771904D01*
X136021961Y-71771904D02*
X135831485Y-71819523D01*
X135831485Y-71819523D02*
X135498152Y-71819523D01*
X135498152Y-71819523D02*
X135307676Y-71771904D01*
X135307676Y-71771904D02*
X135212438Y-71676666D01*
X135212438Y-71676666D02*
X135164819Y-71581428D01*
X135164819Y-71581428D02*
X135164819Y-71390952D01*
X135164819Y-71390952D02*
X135212438Y-71295714D01*
X135212438Y-71295714D02*
X135307676Y-71200476D01*
X135307676Y-71200476D02*
X135498152Y-71152857D01*
X135498152Y-71152857D02*
X135831485Y-71152857D01*
X135831485Y-71152857D02*
X136021961Y-71200476D01*
X136021961Y-71200476D02*
X136117200Y-71295714D01*
X136117200Y-71295714D02*
X136164819Y-71390952D01*
X136164819Y-71390952D02*
X136164819Y-71581428D01*
X135593390Y-70581428D02*
X135545771Y-70676666D01*
X135545771Y-70676666D02*
X135498152Y-70724285D01*
X135498152Y-70724285D02*
X135402914Y-70771904D01*
X135402914Y-70771904D02*
X135355295Y-70771904D01*
X135355295Y-70771904D02*
X135260057Y-70724285D01*
X135260057Y-70724285D02*
X135212438Y-70676666D01*
X135212438Y-70676666D02*
X135164819Y-70581428D01*
X135164819Y-70581428D02*
X135164819Y-70390952D01*
X135164819Y-70390952D02*
X135212438Y-70295714D01*
X135212438Y-70295714D02*
X135260057Y-70248095D01*
X135260057Y-70248095D02*
X135355295Y-70200476D01*
X135355295Y-70200476D02*
X135402914Y-70200476D01*
X135402914Y-70200476D02*
X135498152Y-70248095D01*
X135498152Y-70248095D02*
X135545771Y-70295714D01*
X135545771Y-70295714D02*
X135593390Y-70390952D01*
X135593390Y-70390952D02*
X135593390Y-70581428D01*
X135593390Y-70581428D02*
X135641009Y-70676666D01*
X135641009Y-70676666D02*
X135688628Y-70724285D01*
X135688628Y-70724285D02*
X135783866Y-70771904D01*
X135783866Y-70771904D02*
X135974342Y-70771904D01*
X135974342Y-70771904D02*
X136069580Y-70724285D01*
X136069580Y-70724285D02*
X136117200Y-70676666D01*
X136117200Y-70676666D02*
X136164819Y-70581428D01*
X136164819Y-70581428D02*
X136164819Y-70390952D01*
X136164819Y-70390952D02*
X136117200Y-70295714D01*
X136117200Y-70295714D02*
X136069580Y-70248095D01*
X136069580Y-70248095D02*
X135974342Y-70200476D01*
X135974342Y-70200476D02*
X135783866Y-70200476D01*
X135783866Y-70200476D02*
X135688628Y-70248095D01*
X135688628Y-70248095D02*
X135641009Y-70295714D01*
X135641009Y-70295714D02*
X135593390Y-70390952D01*
X147734819Y-122102857D02*
X147258628Y-122436190D01*
X147734819Y-122674285D02*
X146734819Y-122674285D01*
X146734819Y-122674285D02*
X146734819Y-122293333D01*
X146734819Y-122293333D02*
X146782438Y-122198095D01*
X146782438Y-122198095D02*
X146830057Y-122150476D01*
X146830057Y-122150476D02*
X146925295Y-122102857D01*
X146925295Y-122102857D02*
X147068152Y-122102857D01*
X147068152Y-122102857D02*
X147163390Y-122150476D01*
X147163390Y-122150476D02*
X147211009Y-122198095D01*
X147211009Y-122198095D02*
X147258628Y-122293333D01*
X147258628Y-122293333D02*
X147258628Y-122674285D01*
X147734819Y-121150476D02*
X147734819Y-121721904D01*
X147734819Y-121436190D02*
X146734819Y-121436190D01*
X146734819Y-121436190D02*
X146877676Y-121531428D01*
X146877676Y-121531428D02*
X146972914Y-121626666D01*
X146972914Y-121626666D02*
X147020533Y-121721904D01*
X146734819Y-120817142D02*
X146734819Y-120198095D01*
X146734819Y-120198095D02*
X147115771Y-120531428D01*
X147115771Y-120531428D02*
X147115771Y-120388571D01*
X147115771Y-120388571D02*
X147163390Y-120293333D01*
X147163390Y-120293333D02*
X147211009Y-120245714D01*
X147211009Y-120245714D02*
X147306247Y-120198095D01*
X147306247Y-120198095D02*
X147544342Y-120198095D01*
X147544342Y-120198095D02*
X147639580Y-120245714D01*
X147639580Y-120245714D02*
X147687200Y-120293333D01*
X147687200Y-120293333D02*
X147734819Y-120388571D01*
X147734819Y-120388571D02*
X147734819Y-120674285D01*
X147734819Y-120674285D02*
X147687200Y-120769523D01*
X147687200Y-120769523D02*
X147639580Y-120817142D01*
X132738095Y-47454819D02*
X132738095Y-48264342D01*
X132738095Y-48264342D02*
X132785714Y-48359580D01*
X132785714Y-48359580D02*
X132833333Y-48407200D01*
X132833333Y-48407200D02*
X132928571Y-48454819D01*
X132928571Y-48454819D02*
X133119047Y-48454819D01*
X133119047Y-48454819D02*
X133214285Y-48407200D01*
X133214285Y-48407200D02*
X133261904Y-48359580D01*
X133261904Y-48359580D02*
X133309523Y-48264342D01*
X133309523Y-48264342D02*
X133309523Y-47454819D01*
X134309523Y-48454819D02*
X133738095Y-48454819D01*
X134023809Y-48454819D02*
X134023809Y-47454819D01*
X134023809Y-47454819D02*
X133928571Y-47597676D01*
X133928571Y-47597676D02*
X133833333Y-47692914D01*
X133833333Y-47692914D02*
X133738095Y-47740533D01*
X136250057Y-77151428D02*
X136202438Y-77246666D01*
X136202438Y-77246666D02*
X136107200Y-77341904D01*
X136107200Y-77341904D02*
X135964342Y-77484761D01*
X135964342Y-77484761D02*
X135916723Y-77579999D01*
X135916723Y-77579999D02*
X135916723Y-77675237D01*
X136154819Y-77627618D02*
X136107200Y-77722856D01*
X136107200Y-77722856D02*
X136011961Y-77818094D01*
X136011961Y-77818094D02*
X135821485Y-77865713D01*
X135821485Y-77865713D02*
X135488152Y-77865713D01*
X135488152Y-77865713D02*
X135297676Y-77818094D01*
X135297676Y-77818094D02*
X135202438Y-77722856D01*
X135202438Y-77722856D02*
X135154819Y-77627618D01*
X135154819Y-77627618D02*
X135154819Y-77437142D01*
X135154819Y-77437142D02*
X135202438Y-77341904D01*
X135202438Y-77341904D02*
X135297676Y-77246666D01*
X135297676Y-77246666D02*
X135488152Y-77199047D01*
X135488152Y-77199047D02*
X135821485Y-77199047D01*
X135821485Y-77199047D02*
X136011961Y-77246666D01*
X136011961Y-77246666D02*
X136107200Y-77341904D01*
X136107200Y-77341904D02*
X136154819Y-77437142D01*
X136154819Y-77437142D02*
X136154819Y-77627618D01*
X136154819Y-76246666D02*
X136154819Y-76818094D01*
X136154819Y-76532380D02*
X135154819Y-76532380D01*
X135154819Y-76532380D02*
X135297676Y-76627618D01*
X135297676Y-76627618D02*
X135392914Y-76722856D01*
X135392914Y-76722856D02*
X135440533Y-76818094D01*
X135154819Y-75627618D02*
X135154819Y-75532380D01*
X135154819Y-75532380D02*
X135202438Y-75437142D01*
X135202438Y-75437142D02*
X135250057Y-75389523D01*
X135250057Y-75389523D02*
X135345295Y-75341904D01*
X135345295Y-75341904D02*
X135535771Y-75294285D01*
X135535771Y-75294285D02*
X135773866Y-75294285D01*
X135773866Y-75294285D02*
X135964342Y-75341904D01*
X135964342Y-75341904D02*
X136059580Y-75389523D01*
X136059580Y-75389523D02*
X136107200Y-75437142D01*
X136107200Y-75437142D02*
X136154819Y-75532380D01*
X136154819Y-75532380D02*
X136154819Y-75627618D01*
X136154819Y-75627618D02*
X136107200Y-75722856D01*
X136107200Y-75722856D02*
X136059580Y-75770475D01*
X136059580Y-75770475D02*
X135964342Y-75818094D01*
X135964342Y-75818094D02*
X135773866Y-75865713D01*
X135773866Y-75865713D02*
X135535771Y-75865713D01*
X135535771Y-75865713D02*
X135345295Y-75818094D01*
X135345295Y-75818094D02*
X135250057Y-75770475D01*
X135250057Y-75770475D02*
X135202438Y-75722856D01*
X135202438Y-75722856D02*
X135154819Y-75627618D01*
X130019580Y-77116666D02*
X130067200Y-77164285D01*
X130067200Y-77164285D02*
X130114819Y-77307142D01*
X130114819Y-77307142D02*
X130114819Y-77402380D01*
X130114819Y-77402380D02*
X130067200Y-77545237D01*
X130067200Y-77545237D02*
X129971961Y-77640475D01*
X129971961Y-77640475D02*
X129876723Y-77688094D01*
X129876723Y-77688094D02*
X129686247Y-77735713D01*
X129686247Y-77735713D02*
X129543390Y-77735713D01*
X129543390Y-77735713D02*
X129352914Y-77688094D01*
X129352914Y-77688094D02*
X129257676Y-77640475D01*
X129257676Y-77640475D02*
X129162438Y-77545237D01*
X129162438Y-77545237D02*
X129114819Y-77402380D01*
X129114819Y-77402380D02*
X129114819Y-77307142D01*
X129114819Y-77307142D02*
X129162438Y-77164285D01*
X129162438Y-77164285D02*
X129210057Y-77116666D01*
X130114819Y-76164285D02*
X130114819Y-76735713D01*
X130114819Y-76449999D02*
X129114819Y-76449999D01*
X129114819Y-76449999D02*
X129257676Y-76545237D01*
X129257676Y-76545237D02*
X129352914Y-76640475D01*
X129352914Y-76640475D02*
X129400533Y-76735713D01*
X126114819Y-127206666D02*
X126114819Y-127682856D01*
X126114819Y-127682856D02*
X125114819Y-127682856D01*
X126114819Y-126349523D02*
X126114819Y-126920951D01*
X126114819Y-126635237D02*
X125114819Y-126635237D01*
X125114819Y-126635237D02*
X125257676Y-126730475D01*
X125257676Y-126730475D02*
X125352914Y-126825713D01*
X125352914Y-126825713D02*
X125400533Y-126920951D01*
X122613333Y-52844819D02*
X122280000Y-52368628D01*
X122041905Y-52844819D02*
X122041905Y-51844819D01*
X122041905Y-51844819D02*
X122422857Y-51844819D01*
X122422857Y-51844819D02*
X122518095Y-51892438D01*
X122518095Y-51892438D02*
X122565714Y-51940057D01*
X122565714Y-51940057D02*
X122613333Y-52035295D01*
X122613333Y-52035295D02*
X122613333Y-52178152D01*
X122613333Y-52178152D02*
X122565714Y-52273390D01*
X122565714Y-52273390D02*
X122518095Y-52321009D01*
X122518095Y-52321009D02*
X122422857Y-52368628D01*
X122422857Y-52368628D02*
X122041905Y-52368628D01*
X123518095Y-51844819D02*
X123041905Y-51844819D01*
X123041905Y-51844819D02*
X122994286Y-52321009D01*
X122994286Y-52321009D02*
X123041905Y-52273390D01*
X123041905Y-52273390D02*
X123137143Y-52225771D01*
X123137143Y-52225771D02*
X123375238Y-52225771D01*
X123375238Y-52225771D02*
X123470476Y-52273390D01*
X123470476Y-52273390D02*
X123518095Y-52321009D01*
X123518095Y-52321009D02*
X123565714Y-52416247D01*
X123565714Y-52416247D02*
X123565714Y-52654342D01*
X123565714Y-52654342D02*
X123518095Y-52749580D01*
X123518095Y-52749580D02*
X123470476Y-52797200D01*
X123470476Y-52797200D02*
X123375238Y-52844819D01*
X123375238Y-52844819D02*
X123137143Y-52844819D01*
X123137143Y-52844819D02*
X123041905Y-52797200D01*
X123041905Y-52797200D02*
X122994286Y-52749580D01*
X130839580Y-114876666D02*
X130887200Y-114924285D01*
X130887200Y-114924285D02*
X130934819Y-115067142D01*
X130934819Y-115067142D02*
X130934819Y-115162380D01*
X130934819Y-115162380D02*
X130887200Y-115305237D01*
X130887200Y-115305237D02*
X130791961Y-115400475D01*
X130791961Y-115400475D02*
X130696723Y-115448094D01*
X130696723Y-115448094D02*
X130506247Y-115495713D01*
X130506247Y-115495713D02*
X130363390Y-115495713D01*
X130363390Y-115495713D02*
X130172914Y-115448094D01*
X130172914Y-115448094D02*
X130077676Y-115400475D01*
X130077676Y-115400475D02*
X129982438Y-115305237D01*
X129982438Y-115305237D02*
X129934819Y-115162380D01*
X129934819Y-115162380D02*
X129934819Y-115067142D01*
X129934819Y-115067142D02*
X129982438Y-114924285D01*
X129982438Y-114924285D02*
X130030057Y-114876666D01*
X130030057Y-114495713D02*
X129982438Y-114448094D01*
X129982438Y-114448094D02*
X129934819Y-114352856D01*
X129934819Y-114352856D02*
X129934819Y-114114761D01*
X129934819Y-114114761D02*
X129982438Y-114019523D01*
X129982438Y-114019523D02*
X130030057Y-113971904D01*
X130030057Y-113971904D02*
X130125295Y-113924285D01*
X130125295Y-113924285D02*
X130220533Y-113924285D01*
X130220533Y-113924285D02*
X130363390Y-113971904D01*
X130363390Y-113971904D02*
X130934819Y-114543332D01*
X130934819Y-114543332D02*
X130934819Y-113924285D01*
X134996667Y-118577200D02*
X135139524Y-118624819D01*
X135139524Y-118624819D02*
X135377619Y-118624819D01*
X135377619Y-118624819D02*
X135472857Y-118577200D01*
X135472857Y-118577200D02*
X135520476Y-118529580D01*
X135520476Y-118529580D02*
X135568095Y-118434342D01*
X135568095Y-118434342D02*
X135568095Y-118339104D01*
X135568095Y-118339104D02*
X135520476Y-118243866D01*
X135520476Y-118243866D02*
X135472857Y-118196247D01*
X135472857Y-118196247D02*
X135377619Y-118148628D01*
X135377619Y-118148628D02*
X135187143Y-118101009D01*
X135187143Y-118101009D02*
X135091905Y-118053390D01*
X135091905Y-118053390D02*
X135044286Y-118005771D01*
X135044286Y-118005771D02*
X134996667Y-117910533D01*
X134996667Y-117910533D02*
X134996667Y-117815295D01*
X134996667Y-117815295D02*
X135044286Y-117720057D01*
X135044286Y-117720057D02*
X135091905Y-117672438D01*
X135091905Y-117672438D02*
X135187143Y-117624819D01*
X135187143Y-117624819D02*
X135425238Y-117624819D01*
X135425238Y-117624819D02*
X135568095Y-117672438D01*
X135901429Y-117624819D02*
X136139524Y-118624819D01*
X136139524Y-118624819D02*
X136330000Y-117910533D01*
X136330000Y-117910533D02*
X136520476Y-118624819D01*
X136520476Y-118624819D02*
X136758572Y-117624819D01*
X137663333Y-118624819D02*
X137091905Y-118624819D01*
X137377619Y-118624819D02*
X137377619Y-117624819D01*
X137377619Y-117624819D02*
X137282381Y-117767676D01*
X137282381Y-117767676D02*
X137187143Y-117862914D01*
X137187143Y-117862914D02*
X137091905Y-117910533D01*
D11*
X134856265Y-124414800D02*
X134999122Y-124462419D01*
X134999122Y-124462419D02*
X135237217Y-124462419D01*
X135237217Y-124462419D02*
X135332455Y-124414800D01*
X135332455Y-124414800D02*
X135380074Y-124367180D01*
X135380074Y-124367180D02*
X135427693Y-124271942D01*
X135427693Y-124271942D02*
X135427693Y-124176704D01*
X135427693Y-124176704D02*
X135380074Y-124081466D01*
X135380074Y-124081466D02*
X135332455Y-124033847D01*
X135332455Y-124033847D02*
X135237217Y-123986228D01*
X135237217Y-123986228D02*
X135046741Y-123938609D01*
X135046741Y-123938609D02*
X134951503Y-123890990D01*
X134951503Y-123890990D02*
X134903884Y-123843371D01*
X134903884Y-123843371D02*
X134856265Y-123748133D01*
X134856265Y-123748133D02*
X134856265Y-123652895D01*
X134856265Y-123652895D02*
X134903884Y-123557657D01*
X134903884Y-123557657D02*
X134951503Y-123510038D01*
X134951503Y-123510038D02*
X135046741Y-123462419D01*
X135046741Y-123462419D02*
X135284836Y-123462419D01*
X135284836Y-123462419D02*
X135427693Y-123510038D01*
X135761027Y-123462419D02*
X135999122Y-124462419D01*
X135999122Y-124462419D02*
X136189598Y-123748133D01*
X136189598Y-123748133D02*
X136380074Y-124462419D01*
X136380074Y-124462419D02*
X136618170Y-123462419D01*
X137522931Y-124462419D02*
X136951503Y-124462419D01*
X137237217Y-124462419D02*
X137237217Y-123462419D01*
X137237217Y-123462419D02*
X137141979Y-123605276D01*
X137141979Y-123605276D02*
X137046741Y-123700514D01*
X137046741Y-123700514D02*
X136951503Y-123748133D01*
D10*
X150696666Y-56594819D02*
X150696666Y-57309104D01*
X150696666Y-57309104D02*
X150649047Y-57451961D01*
X150649047Y-57451961D02*
X150553809Y-57547200D01*
X150553809Y-57547200D02*
X150410952Y-57594819D01*
X150410952Y-57594819D02*
X150315714Y-57594819D01*
X151077619Y-56594819D02*
X151696666Y-56594819D01*
X151696666Y-56594819D02*
X151363333Y-56975771D01*
X151363333Y-56975771D02*
X151506190Y-56975771D01*
X151506190Y-56975771D02*
X151601428Y-57023390D01*
X151601428Y-57023390D02*
X151649047Y-57071009D01*
X151649047Y-57071009D02*
X151696666Y-57166247D01*
X151696666Y-57166247D02*
X151696666Y-57404342D01*
X151696666Y-57404342D02*
X151649047Y-57499580D01*
X151649047Y-57499580D02*
X151601428Y-57547200D01*
X151601428Y-57547200D02*
X151506190Y-57594819D01*
X151506190Y-57594819D02*
X151220476Y-57594819D01*
X151220476Y-57594819D02*
X151125238Y-57547200D01*
X151125238Y-57547200D02*
X151077619Y-57499580D01*
D12*
X128800000Y-104490000D02*
X132400000Y-104490000D01*
X130600000Y-100040000D02*
G75*
G03*
X128761522Y-104478478I0J-2600000D01*
G01*
X132438478Y-104478478D02*
G75*
G03*
X130600000Y-100040000I-1838478J1838478D01*
G01*
X104370000Y-133040000D02*
X104370000Y-133160000D01*
X104370000Y-133160000D02*
X106490000Y-133160000D01*
X105430000Y-131040000D02*
X106490000Y-131040000D01*
X106490000Y-131040000D02*
X106490000Y-132100000D01*
X106490000Y-133040000D02*
X106490000Y-133160000D01*
X94955404Y-98470000D02*
G75*
G03*
X95013629Y-96155268I1514596J1120000D01*
G01*
X127910000Y-65670000D02*
X117770000Y-65670000D01*
X127910000Y-65190000D02*
X127910000Y-65670000D01*
X127910000Y-62310000D02*
X127910000Y-61830000D01*
X127910000Y-61830000D02*
X117770000Y-61830000D01*
X117770000Y-65670000D02*
X117770000Y-65190000D01*
X117770000Y-61830000D02*
X117770000Y-62310000D01*
X92300000Y-60870000D02*
X92300000Y-64470000D01*
X96750000Y-62670000D02*
G75*
G03*
X92311522Y-60831522I-2600000J0D01*
G01*
X92311522Y-64508478D02*
G75*
G03*
X96750000Y-62670000I1838478J1838478D01*
G01*
X96700000Y-65490000D02*
X96700000Y-65610000D01*
X96700000Y-65610000D02*
X98820000Y-65610000D01*
X97760000Y-63490000D02*
X98820000Y-63490000D01*
X98820000Y-63490000D02*
X98820000Y-64550000D01*
X98820000Y-65490000D02*
X98820000Y-65610000D01*
X112170000Y-65630000D02*
X102030000Y-65630000D01*
X112170000Y-65150000D02*
X112170000Y-65630000D01*
X112170000Y-62270000D02*
X112170000Y-61790000D01*
X112170000Y-61790000D02*
X102030000Y-61790000D01*
X102030000Y-65630000D02*
X102030000Y-65150000D01*
X102030000Y-61790000D02*
X102030000Y-62270000D01*
X130570000Y-81240000D02*
X130570000Y-99260000D01*
X130570000Y-99260000D02*
X141070000Y-99260000D01*
X133570000Y-81300000D02*
X133570000Y-99200000D01*
X133570000Y-99200000D02*
X138070000Y-99200000D01*
X134820000Y-81300000D02*
X133570000Y-81300000D01*
X138070000Y-81300000D02*
X136820000Y-81300000D01*
X138070000Y-99200000D02*
X138070000Y-81300000D01*
X141070000Y-81240000D02*
X130570000Y-81240000D01*
X141070000Y-99260000D02*
X141070000Y-81240000D01*
X134820000Y-81300000D02*
G75*
G03*
X136820000Y-81300000I1000000J0D01*
G01*
X93760000Y-80820000D02*
X93760000Y-84420000D01*
X98210000Y-82620000D02*
G75*
G03*
X93771522Y-80781522I-2600000J0D01*
G01*
X93771522Y-84458478D02*
G75*
G03*
X98210000Y-82620000I1838478J1838478D01*
G01*
X133730000Y-129670000D02*
X143870000Y-129670000D01*
X133730000Y-130150000D02*
X133730000Y-129670000D01*
X133730000Y-133030000D02*
X133730000Y-133510000D01*
X133730000Y-133510000D02*
X143870000Y-133510000D01*
X143870000Y-129670000D02*
X143870000Y-130150000D01*
X143870000Y-133510000D02*
X143870000Y-133030000D01*
X93760000Y-90620000D02*
X93760000Y-94220000D01*
X98210000Y-92420000D02*
G75*
G03*
X93771522Y-90581522I-2600000J0D01*
G01*
X93771522Y-94258478D02*
G75*
G03*
X98210000Y-92420000I1838478J1838478D01*
G01*
X112190000Y-57240000D02*
X102050000Y-57240000D01*
X112190000Y-56760000D02*
X112190000Y-57240000D01*
X112190000Y-53880000D02*
X112190000Y-53400000D01*
X112190000Y-53400000D02*
X102050000Y-53400000D01*
X102050000Y-57240000D02*
X102050000Y-56760000D01*
X102050000Y-53400000D02*
X102050000Y-53880000D01*
X136210000Y-104580000D02*
X139810000Y-104580000D01*
X138010000Y-100130000D02*
G75*
G03*
X136171522Y-104568478I0J-2600000D01*
G01*
X139848478Y-104568478D02*
G75*
G03*
X138010000Y-100130000I-1838478J1838478D01*
G01*
X94505404Y-58850000D02*
G75*
G03*
X94563629Y-56535268I1514596J1120000D01*
G01*
X95025404Y-78730000D02*
G75*
G03*
X95083629Y-76415268I1514596J1120000D01*
G01*
X112190000Y-61500000D02*
X102050000Y-61500000D01*
X112190000Y-61020000D02*
X112190000Y-61500000D01*
X112190000Y-58140000D02*
X112190000Y-57660000D01*
X112190000Y-57660000D02*
X102050000Y-57660000D01*
X102050000Y-61500000D02*
X102050000Y-61020000D01*
X102050000Y-57660000D02*
X102050000Y-58140000D01*
X117770000Y-57620000D02*
X127910000Y-57620000D01*
X117770000Y-58100000D02*
X117770000Y-57620000D01*
X117770000Y-60980000D02*
X117770000Y-61460000D01*
X117770000Y-61460000D02*
X127910000Y-61460000D01*
X127910000Y-57620000D02*
X127910000Y-58100000D01*
X127910000Y-61460000D02*
X127910000Y-60980000D01*
X96070000Y-116710000D02*
X96070000Y-126850000D01*
X95590000Y-116710000D02*
X96070000Y-116710000D01*
X92710000Y-116710000D02*
X92230000Y-116710000D01*
X92230000Y-116710000D02*
X92230000Y-126850000D01*
X96070000Y-126850000D02*
X95590000Y-126850000D01*
X92230000Y-126850000D02*
X92710000Y-126850000D01*
X99310000Y-132980000D02*
X99310000Y-133100000D01*
X99310000Y-133100000D02*
X101430000Y-133100000D01*
X100370000Y-130980000D02*
X101430000Y-130980000D01*
X101430000Y-130980000D02*
X101430000Y-132040000D01*
X101430000Y-132980000D02*
X101430000Y-133100000D01*
X93290000Y-100600000D02*
X93290000Y-104200000D01*
X97740000Y-102400000D02*
G75*
G03*
X93301522Y-100561522I-2600000J0D01*
G01*
X93301522Y-104238478D02*
G75*
G03*
X97740000Y-102400000I1838478J1838478D01*
G01*
X126740000Y-117790000D02*
X126740000Y-107650000D01*
X127220000Y-117790000D02*
X126740000Y-117790000D01*
X130100000Y-117790000D02*
X130580000Y-117790000D01*
X130580000Y-117790000D02*
X130580000Y-107650000D01*
X126740000Y-107650000D02*
X127220000Y-107650000D01*
X130580000Y-107650000D02*
X130100000Y-107650000D01*
X130290000Y-86840000D02*
X130290000Y-96980000D01*
X129810000Y-86840000D02*
X130290000Y-86840000D01*
X126930000Y-86840000D02*
X126450000Y-86840000D01*
X126450000Y-86840000D02*
X126450000Y-96980000D01*
X130290000Y-96980000D02*
X129810000Y-96980000D01*
X126450000Y-96980000D02*
X126930000Y-96980000D01*
X127850000Y-52990000D02*
X117710000Y-52990000D01*
X127850000Y-52510000D02*
X127850000Y-52990000D01*
X127850000Y-49630000D02*
X127850000Y-49150000D01*
X127850000Y-49150000D02*
X117710000Y-49150000D01*
X117710000Y-52990000D02*
X117710000Y-52510000D01*
X117710000Y-49150000D02*
X117710000Y-49630000D01*
X94495404Y-68650000D02*
G75*
G03*
X94553629Y-66335268I1514596J1120000D01*
G01*
X126400000Y-81330000D02*
X126400000Y-71190000D01*
X126880000Y-81330000D02*
X126400000Y-81330000D01*
X129760000Y-81330000D02*
X130240000Y-81330000D01*
X130240000Y-81330000D02*
X130240000Y-71190000D01*
X126400000Y-71190000D02*
X126880000Y-71190000D01*
X130240000Y-71190000D02*
X129760000Y-71190000D01*
X94975404Y-88630000D02*
G75*
G03*
X95033629Y-86315268I1514596J1120000D01*
G01*
X93660000Y-70830000D02*
X93660000Y-74430000D01*
X98110000Y-72630000D02*
G75*
G03*
X93671522Y-70791522I-2600000J0D01*
G01*
X93671522Y-74468478D02*
G75*
G03*
X98110000Y-72630000I1838478J1838478D01*
G01*
X132300000Y-109990000D02*
X135900000Y-109990000D01*
X134100000Y-105540000D02*
G75*
G03*
X132261522Y-109978478I0J-2600000D01*
G01*
X135938478Y-109978478D02*
G75*
G03*
X134100000Y-105540000I-1838478J1838478D01*
G01*
X123750000Y-133770000D02*
X113610000Y-133770000D01*
X123750000Y-133290000D02*
X123750000Y-133770000D01*
X123750000Y-130410000D02*
X123750000Y-129930000D01*
X123750000Y-129930000D02*
X113610000Y-129930000D01*
X113610000Y-133770000D02*
X113610000Y-133290000D01*
X113610000Y-129930000D02*
X113610000Y-130410000D01*
X135430000Y-72810000D02*
X135430000Y-69210000D01*
X130980000Y-71010000D02*
G75*
G03*
X135418478Y-72848478I2600000J0D01*
G01*
X135418478Y-69171522D02*
G75*
G03*
X130980000Y-71010000I-1838478J-1838478D01*
G01*
X112190000Y-53040000D02*
X102050000Y-53040000D01*
X112190000Y-52560000D02*
X112190000Y-53040000D01*
X112190000Y-49680000D02*
X112190000Y-49200000D01*
X112190000Y-49200000D02*
X102050000Y-49200000D01*
X102050000Y-53040000D02*
X102050000Y-52560000D01*
X102050000Y-49200000D02*
X102050000Y-49680000D01*
X139010000Y-116550000D02*
X139010000Y-115530000D01*
X137540000Y-115530000D02*
X140480000Y-115530000D01*
X140480000Y-115530000D02*
X140480000Y-110090000D01*
X137540000Y-114750000D02*
X140480000Y-114750000D01*
X137540000Y-114630000D02*
X140480000Y-114630000D01*
X137540000Y-114510000D02*
X140480000Y-114510000D01*
X137540000Y-110090000D02*
X137540000Y-115530000D01*
X140480000Y-110090000D02*
X137540000Y-110090000D01*
X139010000Y-109070000D02*
X139010000Y-110090000D01*
X141120000Y-72810000D02*
X141120000Y-69210000D01*
X136670000Y-71010000D02*
G75*
G03*
X141108478Y-72848478I2600000J0D01*
G01*
X141108478Y-69171522D02*
G75*
G03*
X136670000Y-71010000I-1838478J-1838478D01*
G01*
X146280000Y-116390000D02*
X146280000Y-126530000D01*
X145800000Y-116390000D02*
X146280000Y-116390000D01*
X142920000Y-116390000D02*
X142440000Y-116390000D01*
X142440000Y-116390000D02*
X142440000Y-126530000D01*
X146280000Y-126530000D02*
X145800000Y-126530000D01*
X142440000Y-126530000D02*
X142920000Y-126530000D01*
X130760000Y-49520000D02*
X130760000Y-67540000D01*
X130760000Y-67540000D02*
X141260000Y-67540000D01*
X133760000Y-49580000D02*
X133760000Y-67480000D01*
X133760000Y-67480000D02*
X138260000Y-67480000D01*
X135010000Y-49580000D02*
X133760000Y-49580000D01*
X138260000Y-49580000D02*
X137010000Y-49580000D01*
X138260000Y-67480000D02*
X138260000Y-49580000D01*
X141260000Y-49520000D02*
X130760000Y-49520000D01*
X141260000Y-67540000D02*
X141260000Y-49520000D01*
X135010000Y-49580000D02*
G75*
G03*
X137010000Y-49580000I1000000J0D01*
G01*
X141110000Y-78380000D02*
X141110000Y-74780000D01*
X136660000Y-76580000D02*
G75*
G03*
X141098478Y-78418478I2600000J0D01*
G01*
X141098478Y-74741522D02*
G75*
G03*
X136660000Y-76580000I-1838478J-1838478D01*
G01*
X131935000Y-79754775D02*
X131935000Y-79254775D01*
X131685000Y-79504775D02*
X132185000Y-79504775D01*
X130830000Y-76950000D02*
X135990000Y-76950000D01*
X130830000Y-76910000D02*
X135990000Y-76910000D01*
X130831000Y-76870000D02*
X135989000Y-76870000D01*
X130832000Y-76830000D02*
X135988000Y-76830000D01*
X130834000Y-76790000D02*
X135986000Y-76790000D01*
X130837000Y-76750000D02*
X135983000Y-76750000D01*
X130841000Y-76710000D02*
X132370000Y-76710000D01*
X134450000Y-76710000D02*
X135979000Y-76710000D01*
X130845000Y-76670000D02*
X132370000Y-76670000D01*
X134450000Y-76670000D02*
X135975000Y-76670000D01*
X130849000Y-76630000D02*
X132370000Y-76630000D01*
X134450000Y-76630000D02*
X135971000Y-76630000D01*
X130854000Y-76590000D02*
X132370000Y-76590000D01*
X134450000Y-76590000D02*
X135966000Y-76590000D01*
X130860000Y-76550000D02*
X132370000Y-76550000D01*
X134450000Y-76550000D02*
X135960000Y-76550000D01*
X130867000Y-76510000D02*
X132370000Y-76510000D01*
X134450000Y-76510000D02*
X135953000Y-76510000D01*
X130874000Y-76470000D02*
X132370000Y-76470000D01*
X134450000Y-76470000D02*
X135946000Y-76470000D01*
X130882000Y-76430000D02*
X132370000Y-76430000D01*
X134450000Y-76430000D02*
X135938000Y-76430000D01*
X130890000Y-76390000D02*
X132370000Y-76390000D01*
X134450000Y-76390000D02*
X135930000Y-76390000D01*
X130899000Y-76350000D02*
X132370000Y-76350000D01*
X134450000Y-76350000D02*
X135921000Y-76350000D01*
X130909000Y-76310000D02*
X132370000Y-76310000D01*
X134450000Y-76310000D02*
X135911000Y-76310000D01*
X130919000Y-76270000D02*
X132370000Y-76270000D01*
X134450000Y-76270000D02*
X135901000Y-76270000D01*
X130930000Y-76229000D02*
X132370000Y-76229000D01*
X134450000Y-76229000D02*
X135890000Y-76229000D01*
X130942000Y-76189000D02*
X132370000Y-76189000D01*
X134450000Y-76189000D02*
X135878000Y-76189000D01*
X130955000Y-76149000D02*
X132370000Y-76149000D01*
X134450000Y-76149000D02*
X135865000Y-76149000D01*
X130968000Y-76109000D02*
X132370000Y-76109000D01*
X134450000Y-76109000D02*
X135852000Y-76109000D01*
X130982000Y-76069000D02*
X132370000Y-76069000D01*
X134450000Y-76069000D02*
X135838000Y-76069000D01*
X130996000Y-76029000D02*
X132370000Y-76029000D01*
X134450000Y-76029000D02*
X135824000Y-76029000D01*
X131012000Y-75989000D02*
X132370000Y-75989000D01*
X134450000Y-75989000D02*
X135808000Y-75989000D01*
X131028000Y-75949000D02*
X132370000Y-75949000D01*
X134450000Y-75949000D02*
X135792000Y-75949000D01*
X131045000Y-75909000D02*
X132370000Y-75909000D01*
X134450000Y-75909000D02*
X135775000Y-75909000D01*
X131062000Y-75869000D02*
X132370000Y-75869000D01*
X134450000Y-75869000D02*
X135758000Y-75869000D01*
X131081000Y-75829000D02*
X132370000Y-75829000D01*
X134450000Y-75829000D02*
X135739000Y-75829000D01*
X131100000Y-75789000D02*
X132370000Y-75789000D01*
X134450000Y-75789000D02*
X135720000Y-75789000D01*
X131120000Y-75749000D02*
X132370000Y-75749000D01*
X134450000Y-75749000D02*
X135700000Y-75749000D01*
X131142000Y-75709000D02*
X132370000Y-75709000D01*
X134450000Y-75709000D02*
X135678000Y-75709000D01*
X131163000Y-75669000D02*
X132370000Y-75669000D01*
X134450000Y-75669000D02*
X135657000Y-75669000D01*
X131186000Y-75629000D02*
X132370000Y-75629000D01*
X134450000Y-75629000D02*
X135634000Y-75629000D01*
X131210000Y-75589000D02*
X132370000Y-75589000D01*
X134450000Y-75589000D02*
X135610000Y-75589000D01*
X131235000Y-75549000D02*
X132370000Y-75549000D01*
X134450000Y-75549000D02*
X135585000Y-75549000D01*
X131261000Y-75509000D02*
X132370000Y-75509000D01*
X134450000Y-75509000D02*
X135559000Y-75509000D01*
X131288000Y-75469000D02*
X132370000Y-75469000D01*
X134450000Y-75469000D02*
X135532000Y-75469000D01*
X131315000Y-75429000D02*
X132370000Y-75429000D01*
X134450000Y-75429000D02*
X135505000Y-75429000D01*
X131345000Y-75389000D02*
X132370000Y-75389000D01*
X134450000Y-75389000D02*
X135475000Y-75389000D01*
X131375000Y-75349000D02*
X132370000Y-75349000D01*
X134450000Y-75349000D02*
X135445000Y-75349000D01*
X131406000Y-75309000D02*
X132370000Y-75309000D01*
X134450000Y-75309000D02*
X135414000Y-75309000D01*
X131439000Y-75269000D02*
X132370000Y-75269000D01*
X134450000Y-75269000D02*
X135381000Y-75269000D01*
X131473000Y-75229000D02*
X132370000Y-75229000D01*
X134450000Y-75229000D02*
X135347000Y-75229000D01*
X131509000Y-75189000D02*
X132370000Y-75189000D01*
X134450000Y-75189000D02*
X135311000Y-75189000D01*
X131546000Y-75149000D02*
X132370000Y-75149000D01*
X134450000Y-75149000D02*
X135274000Y-75149000D01*
X131584000Y-75109000D02*
X132370000Y-75109000D01*
X134450000Y-75109000D02*
X135236000Y-75109000D01*
X131625000Y-75069000D02*
X132370000Y-75069000D01*
X134450000Y-75069000D02*
X135195000Y-75069000D01*
X131667000Y-75029000D02*
X132370000Y-75029000D01*
X134450000Y-75029000D02*
X135153000Y-75029000D01*
X131711000Y-74989000D02*
X132370000Y-74989000D01*
X134450000Y-74989000D02*
X135109000Y-74989000D01*
X131757000Y-74949000D02*
X132370000Y-74949000D01*
X134450000Y-74949000D02*
X135063000Y-74949000D01*
X131805000Y-74909000D02*
X132370000Y-74909000D01*
X134450000Y-74909000D02*
X135015000Y-74909000D01*
X131856000Y-74869000D02*
X132370000Y-74869000D01*
X134450000Y-74869000D02*
X134964000Y-74869000D01*
X131910000Y-74829000D02*
X132370000Y-74829000D01*
X134450000Y-74829000D02*
X134910000Y-74829000D01*
X131967000Y-74789000D02*
X132370000Y-74789000D01*
X134450000Y-74789000D02*
X134853000Y-74789000D01*
X132027000Y-74749000D02*
X132370000Y-74749000D01*
X134450000Y-74749000D02*
X134793000Y-74749000D01*
X132091000Y-74709000D02*
X132370000Y-74709000D01*
X134450000Y-74709000D02*
X134729000Y-74709000D01*
X132159000Y-74669000D02*
X132370000Y-74669000D01*
X134450000Y-74669000D02*
X134661000Y-74669000D01*
X132232000Y-74629000D02*
X134588000Y-74629000D01*
X132312000Y-74589000D02*
X134508000Y-74589000D01*
X132399000Y-74549000D02*
X134421000Y-74549000D01*
X132495000Y-74509000D02*
X134325000Y-74509000D01*
X132605000Y-74469000D02*
X134215000Y-74469000D01*
X132733000Y-74429000D02*
X134087000Y-74429000D01*
X132892000Y-74389000D02*
X133928000Y-74389000D01*
X133126000Y-74349000D02*
X133694000Y-74349000D01*
X136030000Y-76950000D02*
G75*
G03*
X136030000Y-76950000I-2620000J0D01*
G01*
X128660000Y-131040000D02*
X128660000Y-129660000D01*
X126740000Y-129660000D02*
X130580000Y-129660000D01*
X130580000Y-129660000D02*
X130580000Y-124420000D01*
X126740000Y-124420000D02*
X126740000Y-129660000D01*
X130580000Y-124420000D02*
X126740000Y-124420000D01*
X128660000Y-123040000D02*
X128660000Y-124420000D01*
X117710000Y-53390000D02*
X127850000Y-53390000D01*
X117710000Y-53870000D02*
X117710000Y-53390000D01*
X117710000Y-56750000D02*
X117710000Y-57230000D01*
X117710000Y-57230000D02*
X127850000Y-57230000D01*
X127850000Y-53390000D02*
X127850000Y-53870000D01*
X127850000Y-57230000D02*
X127850000Y-56750000D01*
X132755000Y-117514775D02*
X132755000Y-117014775D01*
X132505000Y-117264775D02*
X133005000Y-117264775D01*
X131650000Y-114710000D02*
X136810000Y-114710000D01*
X131650000Y-114670000D02*
X136810000Y-114670000D01*
X131651000Y-114630000D02*
X136809000Y-114630000D01*
X131652000Y-114590000D02*
X136808000Y-114590000D01*
X131654000Y-114550000D02*
X136806000Y-114550000D01*
X131657000Y-114510000D02*
X136803000Y-114510000D01*
X131661000Y-114470000D02*
X133190000Y-114470000D01*
X135270000Y-114470000D02*
X136799000Y-114470000D01*
X131665000Y-114430000D02*
X133190000Y-114430000D01*
X135270000Y-114430000D02*
X136795000Y-114430000D01*
X131669000Y-114390000D02*
X133190000Y-114390000D01*
X135270000Y-114390000D02*
X136791000Y-114390000D01*
X131674000Y-114350000D02*
X133190000Y-114350000D01*
X135270000Y-114350000D02*
X136786000Y-114350000D01*
X131680000Y-114310000D02*
X133190000Y-114310000D01*
X135270000Y-114310000D02*
X136780000Y-114310000D01*
X131687000Y-114270000D02*
X133190000Y-114270000D01*
X135270000Y-114270000D02*
X136773000Y-114270000D01*
X131694000Y-114230000D02*
X133190000Y-114230000D01*
X135270000Y-114230000D02*
X136766000Y-114230000D01*
X131702000Y-114190000D02*
X133190000Y-114190000D01*
X135270000Y-114190000D02*
X136758000Y-114190000D01*
X131710000Y-114150000D02*
X133190000Y-114150000D01*
X135270000Y-114150000D02*
X136750000Y-114150000D01*
X131719000Y-114110000D02*
X133190000Y-114110000D01*
X135270000Y-114110000D02*
X136741000Y-114110000D01*
X131729000Y-114070000D02*
X133190000Y-114070000D01*
X135270000Y-114070000D02*
X136731000Y-114070000D01*
X131739000Y-114030000D02*
X133190000Y-114030000D01*
X135270000Y-114030000D02*
X136721000Y-114030000D01*
X131750000Y-113989000D02*
X133190000Y-113989000D01*
X135270000Y-113989000D02*
X136710000Y-113989000D01*
X131762000Y-113949000D02*
X133190000Y-113949000D01*
X135270000Y-113949000D02*
X136698000Y-113949000D01*
X131775000Y-113909000D02*
X133190000Y-113909000D01*
X135270000Y-113909000D02*
X136685000Y-113909000D01*
X131788000Y-113869000D02*
X133190000Y-113869000D01*
X135270000Y-113869000D02*
X136672000Y-113869000D01*
X131802000Y-113829000D02*
X133190000Y-113829000D01*
X135270000Y-113829000D02*
X136658000Y-113829000D01*
X131816000Y-113789000D02*
X133190000Y-113789000D01*
X135270000Y-113789000D02*
X136644000Y-113789000D01*
X131832000Y-113749000D02*
X133190000Y-113749000D01*
X135270000Y-113749000D02*
X136628000Y-113749000D01*
X131848000Y-113709000D02*
X133190000Y-113709000D01*
X135270000Y-113709000D02*
X136612000Y-113709000D01*
X131865000Y-113669000D02*
X133190000Y-113669000D01*
X135270000Y-113669000D02*
X136595000Y-113669000D01*
X131882000Y-113629000D02*
X133190000Y-113629000D01*
X135270000Y-113629000D02*
X136578000Y-113629000D01*
X131901000Y-113589000D02*
X133190000Y-113589000D01*
X135270000Y-113589000D02*
X136559000Y-113589000D01*
X131920000Y-113549000D02*
X133190000Y-113549000D01*
X135270000Y-113549000D02*
X136540000Y-113549000D01*
X131940000Y-113509000D02*
X133190000Y-113509000D01*
X135270000Y-113509000D02*
X136520000Y-113509000D01*
X131962000Y-113469000D02*
X133190000Y-113469000D01*
X135270000Y-113469000D02*
X136498000Y-113469000D01*
X131983000Y-113429000D02*
X133190000Y-113429000D01*
X135270000Y-113429000D02*
X136477000Y-113429000D01*
X132006000Y-113389000D02*
X133190000Y-113389000D01*
X135270000Y-113389000D02*
X136454000Y-113389000D01*
X132030000Y-113349000D02*
X133190000Y-113349000D01*
X135270000Y-113349000D02*
X136430000Y-113349000D01*
X132055000Y-113309000D02*
X133190000Y-113309000D01*
X135270000Y-113309000D02*
X136405000Y-113309000D01*
X132081000Y-113269000D02*
X133190000Y-113269000D01*
X135270000Y-113269000D02*
X136379000Y-113269000D01*
X132108000Y-113229000D02*
X133190000Y-113229000D01*
X135270000Y-113229000D02*
X136352000Y-113229000D01*
X132135000Y-113189000D02*
X133190000Y-113189000D01*
X135270000Y-113189000D02*
X136325000Y-113189000D01*
X132165000Y-113149000D02*
X133190000Y-113149000D01*
X135270000Y-113149000D02*
X136295000Y-113149000D01*
X132195000Y-113109000D02*
X133190000Y-113109000D01*
X135270000Y-113109000D02*
X136265000Y-113109000D01*
X132226000Y-113069000D02*
X133190000Y-113069000D01*
X135270000Y-113069000D02*
X136234000Y-113069000D01*
X132259000Y-113029000D02*
X133190000Y-113029000D01*
X135270000Y-113029000D02*
X136201000Y-113029000D01*
X132293000Y-112989000D02*
X133190000Y-112989000D01*
X135270000Y-112989000D02*
X136167000Y-112989000D01*
X132329000Y-112949000D02*
X133190000Y-112949000D01*
X135270000Y-112949000D02*
X136131000Y-112949000D01*
X132366000Y-112909000D02*
X133190000Y-112909000D01*
X135270000Y-112909000D02*
X136094000Y-112909000D01*
X132404000Y-112869000D02*
X133190000Y-112869000D01*
X135270000Y-112869000D02*
X136056000Y-112869000D01*
X132445000Y-112829000D02*
X133190000Y-112829000D01*
X135270000Y-112829000D02*
X136015000Y-112829000D01*
X132487000Y-112789000D02*
X133190000Y-112789000D01*
X135270000Y-112789000D02*
X135973000Y-112789000D01*
X132531000Y-112749000D02*
X133190000Y-112749000D01*
X135270000Y-112749000D02*
X135929000Y-112749000D01*
X132577000Y-112709000D02*
X133190000Y-112709000D01*
X135270000Y-112709000D02*
X135883000Y-112709000D01*
X132625000Y-112669000D02*
X133190000Y-112669000D01*
X135270000Y-112669000D02*
X135835000Y-112669000D01*
X132676000Y-112629000D02*
X133190000Y-112629000D01*
X135270000Y-112629000D02*
X135784000Y-112629000D01*
X132730000Y-112589000D02*
X133190000Y-112589000D01*
X135270000Y-112589000D02*
X135730000Y-112589000D01*
X132787000Y-112549000D02*
X133190000Y-112549000D01*
X135270000Y-112549000D02*
X135673000Y-112549000D01*
X132847000Y-112509000D02*
X133190000Y-112509000D01*
X135270000Y-112509000D02*
X135613000Y-112509000D01*
X132911000Y-112469000D02*
X133190000Y-112469000D01*
X135270000Y-112469000D02*
X135549000Y-112469000D01*
X132979000Y-112429000D02*
X133190000Y-112429000D01*
X135270000Y-112429000D02*
X135481000Y-112429000D01*
X133052000Y-112389000D02*
X135408000Y-112389000D01*
X133132000Y-112349000D02*
X135328000Y-112349000D01*
X133219000Y-112309000D02*
X135241000Y-112309000D01*
X133315000Y-112269000D02*
X135145000Y-112269000D01*
X133425000Y-112229000D02*
X135035000Y-112229000D01*
X133553000Y-112189000D02*
X134907000Y-112189000D01*
X133712000Y-112149000D02*
X134748000Y-112149000D01*
X133946000Y-112109000D02*
X134514000Y-112109000D01*
X136850000Y-114710000D02*
G75*
G03*
X136850000Y-114710000I-2620000J0D01*
G01*
D11*
X133050000Y-120985000D02*
X139060000Y-120985000D01*
X139060000Y-120985000D02*
X139060000Y-126995000D01*
X139060000Y-126995000D02*
X133050000Y-126995000D01*
X133050000Y-126995000D02*
X133050000Y-120985000D01*
X138730001Y-123990000D02*
G75*
G03*
X138730001Y-123990000I-2672864J0D01*
G01*
D12*
X141860000Y-56105000D02*
X143190000Y-56105000D01*
X141860000Y-57435000D02*
X141860000Y-56105000D01*
X141860000Y-58705000D02*
X141860000Y-107025000D01*
X141860000Y-58705000D02*
X144460000Y-58705000D01*
X141860000Y-107025000D02*
X147060000Y-107025000D01*
X144460000Y-56105000D02*
X147060000Y-56105000D01*
X144460000Y-58705000D02*
X144460000Y-56105000D01*
X147060000Y-56105000D02*
X147060000Y-107025000D01*
M02*
